<?xml version="1.0" standalone="no"?>
<!DOCTYPE svg PUBLIC "-//W3C//DTD SVG 20010904//EN"
 "http://www.w3.org/TR/2001/REC-SVG-20010904/DTD/svg10.dtd">
<svg version="1.0" xmlns="http://www.w3.org/2000/svg"
 width="958.000000pt" height="958.000000pt" viewBox="0 0 958.000000 958.000000"
 preserveAspectRatio="xMidYMid meet">
<metadata>
Created by potrace 1.11, written by Peter Selinger 2001-2013
</metadata>
<g transform="translate(0.000000,958.000000) scale(0.100000,-0.100000)"
fill="#000000" stroke="none">
<path d="M2463 9574 c3 -3 108 -10 234 -15 125 -5 302 -15 393 -23 91 -8 226
-20 300 -26 74 -6 189 -15 255 -20 66 -5 233 -19 370 -30 138 -11 282 -23 320
-26 144 -12 177 -32 195 -119 12 -60 20 -65 130 -85 36 -6 88 -18 117 -25 45
-12 58 -11 101 2 47 15 54 15 138 -6 52 -13 103 -33 122 -48 26 -20 40 -24 65
-19 90 19 97 18 155 -9 85 -41 102 -60 102 -114 0 -28 -8 -59 -20 -79 -25 -41
-25 -85 -1 -120 31 -43 36 -103 12 -134 -25 -31 -26 -56 -6 -122 8 -27 15 -61
15 -76 0 -15 13 -44 29 -64 l29 -36 17 27 c13 19 21 69 31 192 7 91 16 175 19
186 4 12 -1 40 -9 63 -9 23 -23 61 -32 85 -9 23 -20 68 -25 101 -13 79 -72
190 -164 310 -62 80 -143 152 -233 205 l-53 31 -1306 0 c-719 0 -1304 -3
-1300 -6z"/>
<path d="M5330 9565 c0 -25 28 -73 49 -85 26 -13 84 -13 115 1 24 12 36 35 36
77 0 21 -3 22 -100 22 -84 0 -100 -3 -100 -15z"/>
<path d="M6470 9573 c0 -5 6 -20 14 -34 7 -14 16 -37 20 -52 9 -39 22 -33 40
20 24 69 22 73 -29 73 -25 0 -45 -3 -45 -7z"/>
<path d="M6846 9558 c4 -13 10 -38 15 -56 10 -46 13 -47 45 -17 19 17 35 24
49 21 11 -3 23 -6 28 -6 4 0 7 -6 7 -14 0 -10 -10 -14 -30 -14 -43 1 -60 -18
-60 -66 0 -35 4 -43 27 -53 52 -24 71 -17 96 35 12 26 32 55 45 65 26 22 31
77 7 77 -9 0 -15 9 -15 25 l0 25 -111 0 c-110 0 -110 0 -103 -22z"/>
<path d="M7412 9449 c2 -64 12 -153 23 -202 19 -85 19 -88 1 -121 -15 -28 -17
-48 -13 -98 13 -135 19 -168 34 -168 11 0 14 -11 12 -45 -2 -24 0 -47 4 -51
11 -11 8 -64 -3 -64 -5 0 -15 -18 -21 -40 -12 -38 -14 -40 -52 -40 -39 0 -40
0 -22 -20 10 -11 22 -17 26 -14 5 3 14 -7 19 -21 5 -14 14 -24 18 -21 5 3 6
-8 4 -25 -2 -16 -8 -29 -13 -29 -5 0 -9 -7 -9 -15 0 -8 5 -15 10 -15 6 0 10
-11 10 -24 0 -19 4 -22 25 -18 18 3 27 -1 32 -14 4 -11 2 -19 -6 -22 -13 -4
32 -52 50 -52 9 0 12 -13 10 -42 -1 -9 3 -19 9 -23 5 -3 10 -15 10 -26 0 -14
7 -19 25 -19 14 0 25 5 25 10 0 15 29 12 45 -4 12 -11 12 -16 0 -32 -8 -11
-15 -27 -15 -36 0 -10 -4 -18 -10 -18 -5 0 -10 -9 -10 -20 0 -11 -7 -23 -15
-26 -8 -4 -15 -12 -15 -20 0 -8 -4 -14 -8 -14 -10 0 -68 -116 -74 -145 -1 -11
-6 -22 -9 -25 -23 -18 -101 -163 -130 -240 -7 -19 -23 -48 -37 -64 -20 -25
-23 -36 -17 -75 6 -45 27 -116 44 -156 15 -33 51 -192 51 -225 0 -16 5 -30 10
-30 6 0 10 7 10 17 0 15 1 15 18 0 10 -10 24 -17 30 -17 7 0 12 -16 12 -40 0
-29 -4 -40 -15 -40 -8 0 -15 -9 -15 -20 0 -19 -86 -116 -121 -136 -8 -5 -21
-37 -28 -74 -24 -115 -24 -151 -2 -207 19 -48 19 -55 5 -97 -9 -25 -23 -51
-31 -58 -14 -11 -16 -10 -11 14 4 19 1 25 -9 21 -7 -3 -13 -15 -13 -27 0 -12
-5 -27 -12 -34 -6 -6 -9 -15 -5 -19 4 -3 14 2 22 13 13 18 14 16 15 -23 0 -24
5 -43 10 -43 14 0 13 -93 -1 -124 -6 -13 -20 -27 -31 -30 -19 -4 -20 -11 -16
-73 3 -44 0 -77 -9 -93 -11 -21 -11 -25 2 -28 32 -7 12 -152 -27 -197 -4 -5
-8 -17 -8 -27 0 -10 -5 -27 -12 -37 -6 -11 -8 -26 -3 -37 10 -24 6 -89 -6
-123 -10 -24 -11 -23 -43 34 -27 50 -31 65 -25 98 3 21 2 57 -3 80 -5 25 -5
66 1 106 12 83 7 317 -8 354 -6 15 -16 27 -22 27 -8 0 -10 14 -5 48 4 26 8 56
8 67 0 11 5 40 10 63 6 33 4 57 -9 98 -16 51 -16 58 0 122 21 82 23 282 3 282
-21 0 -36 45 -26 77 24 79 29 104 35 178 4 44 11 88 17 98 11 22 -6 49 -26 41
-9 -3 -16 6 -20 27 -11 57 -6 88 20 126 18 27 24 45 19 63 -4 14 -9 44 -12 68
-5 45 -18 53 -39 25 -11 -15 -14 -15 -14 -3 -1 8 -5 49 -9 90 -5 46 -4 95 3
127 9 47 8 54 -9 66 -16 13 -17 22 -10 88 4 41 9 103 10 139 1 36 5 139 9 230
5 112 3 194 -5 255 -7 50 -13 125 -13 168 -1 58 -4 74 -11 61 -52 -89 -71
-109 -103 -109 -28 0 -34 -4 -43 -34 -6 -18 -11 -59 -11 -90 2 -537 5 -697 13
-713 18 -34 19 -178 2 -258 -21 -97 -21 -115 -3 -116 8 -1 21 -2 28 -3 17 -1
15 -21 -9 -65 -16 -31 -21 -59 -23 -147 -2 -94 -5 -111 -23 -131 -11 -13 -30
-42 -42 -65 -17 -34 -18 -42 -6 -46 8 -4 15 1 17 11 2 12 8 6 20 -18 29 -60 8
-158 -44 -210 -24 -24 -28 -36 -28 -84 0 -43 5 -61 20 -76 21 -21 26 -55 10
-65 -5 -3 -10 -14 -10 -23 0 -9 -18 -44 -40 -77 -22 -33 -40 -66 -40 -72 0 -7
-7 -13 -15 -13 -11 0 -15 12 -15 49 0 47 -13 76 -22 49 -2 -6 -11 -9 -20 -5
-20 7 -50 107 -51 167 0 64 1 372 1 515 0 66 4 150 7 187 6 55 4 70 -9 84 -23
22 -79 11 -93 -19 -36 -76 -73 -199 -73 -239 0 -13 -4 -28 -8 -34 -16 -17 -33
-111 -26 -140 3 -16 17 -48 31 -72 26 -46 24 -71 -8 -105 -15 -17 -25 -19 -71
-12 -29 4 -82 7 -117 6 -35 0 -80 3 -100 9 -20 5 -85 10 -146 11 -60 0 -162 7
-225 15 -105 13 -117 17 -137 42 -12 15 -29 35 -37 45 -9 9 -16 22 -16 27 0
22 -26 7 -71 -41 l-48 -52 -78 7 c-43 4 -92 14 -110 23 -30 16 -37 16 -101 0
-41 -9 -96 -15 -133 -13 -35 2 -125 7 -199 11 -145 8 -274 0 -264 -17 4 -6 28
-7 63 -3 39 4 77 2 118 -9 34 -9 90 -16 126 -16 131 0 337 -54 349 -91 2 -7
45 -12 102 -14 92 -3 101 -5 124 -30 19 -21 25 -39 27 -87 2 -38 -1 -55 -6
-47 -7 11 -9 11 -9 1 0 -8 -8 -21 -19 -30 -18 -17 -41 -71 -61 -150 -15 -58
-82 -126 -124 -125 -135 1 -180 14 -209 60 -4 7 -17 13 -27 13 -11 0 -20 5
-20 11 0 6 -7 17 -15 26 -8 8 -13 18 -10 23 3 4 -2 13 -10 20 -12 10 -16 9
-21 -6 -12 -36 -12 -41 -5 -52 11 -19 124 -88 156 -96 16 -4 40 -18 53 -32 14
-13 30 -24 37 -24 7 0 29 -19 50 -41 33 -37 37 -46 32 -82 -3 -22 -15 -49 -26
-60 -19 -19 -25 -20 -168 -8 -81 6 -163 11 -181 10 l-33 -2 23 -26 c13 -14 35
-37 49 -51 15 -14 32 -41 38 -60 6 -19 27 -53 46 -75 19 -21 43 -57 54 -80 37
-76 91 -230 90 -255 -1 -16 -3 -19 -6 -8 -2 9 -13 20 -23 23 -10 3 -21 18 -25
33 -13 52 -48 117 -76 143 -16 14 -29 32 -29 40 0 8 -11 16 -25 17 l-25 2 18
-38 c9 -20 21 -40 25 -43 5 -4 3 -16 -4 -28 -15 -22 -29 -28 -29 -11 0 6 -25
36 -55 67 -30 31 -55 61 -55 66 0 17 -92 147 -100 142 -4 -3 -11 7 -15 22 -8
32 -62 113 -76 113 -5 0 -15 11 -21 25 -6 14 -17 25 -25 25 -15 0 -18 27 -3
32 6 2 5 9 -1 18 -6 9 -12 11 -15 5 -5 -12 -72 -8 -89 5 -5 4 -26 10 -45 14
l-35 6 45 -26 c24 -14 56 -39 71 -55 14 -16 31 -29 37 -29 7 0 12 -11 12 -25
0 -25 0 -25 -20 -5 -31 31 -43 24 -18 -10 12 -17 28 -28 35 -26 31 12 164
-186 162 -241 0 -17 -1 -17 -12 1 -7 10 -21 30 -32 44 -11 14 -20 32 -21 39
-1 7 -9 20 -18 29 -9 8 -16 20 -16 25 0 5 -14 28 -31 52 -30 40 -31 41 -25 12
5 -24 4 -26 -4 -12 -6 9 -15 17 -20 17 -26 0 3 -65 44 -103 17 -15 18 -20 6
-27 -13 -9 -13 -10 0 -10 16 -1 87 -130 71 -130 -5 0 -14 14 -21 30 -7 17 -17
30 -22 30 -6 0 -3 -11 6 -25 9 -13 16 -32 15 -42 0 -11 -3 -13 -6 -5 -2 6 -10
12 -17 12 -7 0 -18 11 -24 25 -6 14 -15 25 -20 25 -17 0 -22 -13 -10 -27 6 -7
8 -16 6 -19 -6 -5 -20 9 -53 52 -26 33 -58 65 -62 60 -2 -1 0 -17 3 -35 4 -21
11 -30 20 -27 8 3 11 0 8 -9 -3 -7 1 -26 9 -42 8 -15 18 -39 21 -53 6 -21 5
-22 -4 -7 -6 9 -17 17 -25 17 -7 0 -33 21 -57 47 -133 145 -176 182 -199 167
-15 -9 10 -34 28 -27 13 5 14 3 3 -16 -8 -16 -17 -20 -28 -16 -37 15 -84 26
-90 21 -3 -3 0 -6 6 -6 7 0 12 -7 12 -15 0 -10 -11 -15 -35 -15 -26 0 -33 4
-29 14 3 8 13 18 22 22 30 12 -46 27 -135 26 -46 0 -83 4 -83 9 0 5 6 10 13
11 6 0 17 2 22 3 6 2 17 3 25 4 10 1 8 6 -8 17 -12 8 -26 13 -31 10 -5 -4 -11
-3 -13 2 -6 14 -94 69 -122 76 -43 11 -27 15 22 6 40 -7 42 -6 36 14 -15 48
-16 51 -4 34 6 -10 18 -18 25 -18 21 0 19 27 -2 39 -16 9 -14 10 9 11 21 0 34
-10 57 -44 18 -26 44 -49 63 -56 18 -7 27 -14 21 -17 -20 -7 -15 -22 5 -16 10
2 31 -3 47 -11 17 -9 44 -16 62 -16 46 0 36 17 -66 116 -88 87 -94 101 -26 59
37 -23 78 -37 45 -15 -13 8 -13 10 2 10 9 0 20 -4 23 -10 3 -5 11 -10 17 -10
6 0 -1 12 -15 26 -15 15 -25 30 -22 34 7 11 -12 25 -85 61 -36 18 -59 34 -52
37 16 5 132 -37 132 -48 0 -5 15 -11 33 -15 59 -12 187 -60 184 -69 -2 -5 19
-31 45 -58 50 -49 78 -67 41 -25 -11 12 -30 42 -42 67 -27 52 -47 72 -119 112
-29 17 -57 38 -62 47 -5 10 -27 23 -49 30 -23 6 -41 16 -41 22 0 6 5 7 12 3 6
-4 8 -3 5 3 -4 6 -36 19 -72 29 -65 19 -84 34 -42 34 18 0 19 2 7 10 -38 25
-345 0 -422 -34 -31 -14 -26 -14 78 -9 89 5 117 3 140 -9 16 -9 55 -23 86 -32
32 -9 60 -22 64 -27 4 -8 1 -8 -12 -1 -11 5 -41 13 -69 17 -39 5 -47 4 -38 -5
6 -7 32 -15 58 -18 32 -3 42 -8 33 -14 -10 -7 -9 -12 7 -24 19 -15 17 -16 -29
-9 -27 3 -66 16 -88 27 -55 29 -300 60 -312 39 -5 -8 12 -11 58 -11 36 0 66
-4 66 -9 0 -12 -54 -22 -58 -10 -5 12 -52 12 -52 0 0 -5 11 -12 25 -15 15 -4
27 -16 31 -31 3 -14 14 -25 23 -26 10 0 12 -2 3 -6 -7 -3 -24 3 -38 12 -29 19
-131 34 -121 18 4 -6 21 -14 39 -18 l33 -8 -28 -4 c-15 -3 -49 1 -75 7 -26 7
-58 11 -72 11 -14 -1 -40 -2 -58 -2 -29 0 -32 -2 -26 -26 6 -22 4 -25 -9 -20
-12 4 -21 -3 -32 -27 -10 -20 -29 -39 -46 -46 -17 -7 -32 -23 -35 -36 -5 -18
-13 -24 -35 -24 -16 0 -29 -4 -29 -10 0 -5 -9 -10 -20 -10 -11 0 -23 -7 -27
-16 -3 -8 -12 -13 -20 -10 -25 10 -52 -13 -63 -55 -10 -36 -14 -41 -36 -36
-13 2 -27 0 -30 -4 -3 -5 -12 -9 -20 -9 -10 0 -13 7 -8 25 3 14 3 25 -1 25 -4
0 -39 -33 -77 -72 -44 -46 -80 -74 -94 -75 -35 -3 -30 22 9 46 44 29 84 71 96
104 6 15 19 31 28 34 10 4 23 11 28 15 58 46 119 87 157 106 25 13 48 32 51
41 5 19 105 91 126 91 6 0 11 9 11 21 0 15 -5 19 -15 15 -11 -4 -15 2 -15 27
0 26 4 33 21 34 11 1 32 13 46 27 34 34 52 33 59 -4 6 -26 9 -29 38 -24 17 3
44 10 60 15 16 5 42 9 58 9 16 0 31 6 34 15 4 8 12 15 20 15 7 0 21 8 31 19
10 10 46 24 79 31 34 8 69 19 79 26 36 27 4 34 -145 34 l-149 0 -17 35 c-19
40 -30 44 -39 15 -14 -45 -44 -52 -202 -48 -151 4 -157 5 -226 52 -28 19 -28
19 -55 -5 -33 -30 -42 -41 -37 -50 3 -3 41 -9 86 -13 99 -8 134 -23 188 -81
41 -44 55 -95 30 -111 -10 -6 -193 -6 -254 1 -16 2 -82 8 -145 13 -117 10
-183 29 -206 60 -19 25 -17 76 5 103 17 21 29 24 124 29 58 3 108 8 112 12 4
4 -4 19 -18 34 l-25 27 -34 -20 c-40 -23 -91 -22 -152 5 -24 11 -58 23 -75 27
-33 7 -110 86 -112 114 0 9 -2 52 -4 96 -2 53 -12 105 -29 153 -36 104 -16
139 88 155 22 4 43 12 47 19 7 10 44 12 155 10 85 -2 143 1 140 6 -8 13 -135
29 -401 51 -55 4 -111 13 -125 19 -22 10 -208 28 -395 38 -131 7 -298 26 -324
36 -14 6 -85 9 -157 9 -72 -1 -151 3 -176 8 -24 6 -71 13 -104 16 -32 3 -104
10 -159 15 -55 5 -131 12 -170 15 -38 4 -124 15 -190 25 -135 22 -297 28 -335
12 -18 -7 -21 -11 -10 -15 44 -16 283 -47 400 -52 213 -10 360 -31 385 -55 12
-12 40 -23 61 -27 21 -3 49 -15 61 -26 l22 -20 31 27 c36 30 72 33 115 10 25
-13 36 -13 67 -3 29 9 46 9 82 -1 33 -9 53 -10 76 -2 38 14 286 -8 450 -39 95
-18 129 -31 136 -52 5 -17 12 -18 48 -12 76 13 98 10 124 -21 24 -27 24 -33
19 -124 -3 -52 -11 -119 -18 -149 -6 -30 -9 -78 -5 -108 7 -59 -9 -104 -43
-123 -25 -13 -103 -13 -156 0 -22 6 -78 17 -124 25 -118 22 -211 87 -193 136
13 34 4 49 -28 49 -46 0 -80 -17 -80 -40 0 -12 -16 -38 -36 -58 -34 -35 -40
-37 -104 -39 -37 -1 -96 -7 -131 -13 -127 -20 -175 -11 -219 43 -15 17 -16 17
-37 -2 -12 -12 -33 -21 -47 -21 -38 0 -39 -15 -3 -28 18 -6 41 -25 50 -42 10
-16 22 -30 27 -30 20 0 40 13 40 26 0 18 56 19 64 2 5 -10 7 -10 12 0 3 7 24
12 50 12 28 0 43 -4 39 -10 -3 -5 -19 -10 -34 -10 -31 0 -48 -25 -50 -73 -1
-31 -35 -66 -64 -67 -10 0 -28 9 -39 20 -12 11 -24 16 -27 12 -12 -18 -51 -32
-86 -32 -42 0 -120 57 -136 98 -13 34 8 72 54 98 l38 21 -45 41 c-49 45 -72
52 -91 26 -7 -10 -27 -17 -52 -18 -32 0 -48 6 -76 31 -26 23 -42 29 -61 26
-14 -3 -26 -11 -26 -19 0 -26 -45 -38 -150 -40 -139 -3 -152 -6 -162 -34 -11
-30 -2 -38 19 -18 14 15 18 15 39 2 21 -14 24 -13 48 12 22 25 28 26 51 16 14
-7 36 -12 48 -12 13 0 43 -20 72 -47 28 -26 56 -46 63 -45 8 2 27 17 43 33 33
34 88 40 110 12 20 -24 18 -98 -4 -120 -20 -20 -92 -22 -139 -4 -29 11 -80 1
-85 -16 -2 -6 6 -14 19 -18 41 -12 78 -30 78 -37 0 -5 18 -8 40 -8 27 0 40 -4
40 -13 0 -11 -29 -16 -117 -21 -67 -3 -119 -2 -122 3 -3 5 -90 8 -192 8 -146
-1 -190 2 -203 12 -15 13 -18 12 -23 -7 -3 -13 -16 -23 -34 -27 -24 -5 -29
-12 -29 -36 0 -18 5 -29 14 -29 8 0 36 -10 63 -21 50 -23 217 -71 243 -71 8 0
22 -2 30 -4 28 -9 -10 -22 -50 -17 -21 3 -60 -1 -86 -10 -27 -8 -77 -21 -111
-27 -35 -7 -70 -21 -79 -31 -16 -18 -16 -20 4 -42 17 -18 19 -26 10 -35 -7 -7
-18 -12 -25 -12 -10 0 -13 -54 -13 -265 l0 -264 29 5 c16 3 53 -1 82 -9 32 -9
124 -17 227 -21 154 -6 177 -9 202 -28 30 -21 44 -21 160 1 67 13 226 -1 272
-25 28 -14 36 -14 93 0 55 14 74 14 171 1 60 -8 124 -19 142 -24 18 -6 55 -7
81 -4 36 4 59 0 94 -15 40 -18 66 -21 185 -20 324 1 522 -2 587 -11 65 -8 71
-7 87 13 12 14 18 39 18 77 0 65 25 138 42 121 6 -6 17 -8 26 -4 10 3 7 -3 -6
-16 -12 -12 -22 -30 -22 -40 0 -10 -5 -23 -12 -30 -22 -22 1 -24 31 -3 33 24
48 15 26 -15 -8 -10 -15 -29 -15 -42 0 -12 -7 -34 -16 -47 -12 -18 -15 -37
-10 -68 6 -41 4 -47 -33 -87 -37 -41 -52 -81 -49 -130 1 -9 -10 -33 -25 -55
-22 -34 -26 -53 -28 -125 -2 -76 8 -146 32 -205 15 -40 18 -69 8 -88 -15 -27
-2 -105 22 -125 22 -19 23 -33 7 -79 -19 -53 -93 -66 -218 -38 -36 8 -116 24
-179 35 -78 13 -124 26 -143 40 -16 12 -46 24 -66 27 -20 3 -50 13 -67 21 -16
8 -56 16 -87 17 -31 1 -64 7 -72 14 -18 15 -62 10 -58 -7 3 -18 -41 -12 -163
23 -42 12 -90 17 -157 16 -78 -2 -104 1 -128 16 -16 9 -30 23 -30 29 0 18 -19
22 -75 17 -41 -4 -54 -1 -72 16 -15 15 -35 21 -65 21 -26 0 -55 8 -73 20 -40
27 -63 25 -92 -6 -21 -23 -30 -26 -68 -22 -27 4 -57 16 -81 35 -51 39 -68 45
-91 28 -24 -19 -93 -19 -120 0 -13 9 -27 33 -33 54 -14 52 -49 68 -82 38 -13
-13 -43 -29 -67 -37 -37 -12 -44 -12 -51 0 -5 8 -23 15 -40 16 l-30 2 0 -585
0 -584 29 20 c17 12 45 21 65 21 30 0 38 -5 46 -25 5 -14 23 -34 40 -43 16 -9
30 -20 30 -24 0 -17 63 -6 114 19 52 25 60 26 123 17 70 -9 196 -5 208 8 4 4
11 29 16 55 6 29 19 58 34 73 24 24 31 25 148 26 67 0 132 4 144 8 13 4 50 0
86 -9 35 -9 91 -15 123 -14 32 2 109 -3 169 -10 61 -7 151 -16 200 -20 95 -8
132 -19 154 -45 18 -21 50 -20 74 1 15 14 34 17 83 15 116 -5 159 -5 189 -3
17 1 74 0 128 -2 85 -4 102 -8 123 -28 13 -13 27 -39 30 -60 4 -21 17 -48 30
-60 13 -12 24 -27 24 -34 0 -6 13 -26 28 -44 26 -31 29 -32 44 -18 14 14 41
125 43 177 0 8 4 29 7 45 4 17 21 98 38 180 32 153 59 246 60 210 0 -16 2 -17
9 -6 20 31 36 1 55 -100 11 -57 24 -110 29 -117 5 -7 7 -30 4 -52 -5 -37 -3
-40 18 -40 19 0 23 -7 28 -41 3 -22 12 -46 20 -52 8 -7 29 -49 47 -94 23 -56
39 -83 53 -87 13 -3 18 -10 14 -20 -8 -21 2 -46 18 -46 7 0 15 -12 18 -28 3
-15 15 -38 26 -51 12 -13 21 -31 21 -40 0 -9 10 -21 22 -26 13 -6 24 -19 26
-30 6 -28 31 -55 48 -48 10 3 16 -5 20 -27 7 -30 8 -31 48 -25 22 4 51 13 63
21 12 8 31 14 43 14 12 0 20 7 20 16 0 16 19 15 64 -2 11 -4 16 -1 16 10 0 19
13 20 42 5 11 -6 36 -12 56 -14 21 -1 49 -6 65 -10 21 -6 26 -4 22 7 -6 15
-83 41 -104 36 -8 -2 -16 3 -18 11 -4 10 3 12 33 7 22 -3 65 -7 96 -10 79 -6
93 -12 93 -40 0 -20 -5 -23 -36 -23 -20 0 -44 -5 -55 -11 -17 -10 -16 -12 14
-18 22 -4 32 -12 32 -25 0 -15 -8 -19 -40 -19 -44 0 -52 -10 -18 -25 12 -6 26
-19 32 -30 6 -11 15 -23 20 -26 5 -4 6 -17 3 -31 -3 -13 -2 -30 3 -38 8 -12
10 -11 10 7 0 32 15 36 28 8 7 -14 18 -25 27 -25 8 0 15 -4 15 -9 0 -13 52
-20 73 -10 10 6 15 14 12 20 -4 5 2 9 11 9 34 0 94 33 94 52 0 10 6 18 13 18
6 0 18 13 25 28 8 20 25 33 52 42 41 13 50 25 28 33 -7 3 -4 5 7 5 11 0 37 5
58 10 40 11 87 -3 87 -25 0 -6 5 -13 12 -15 15 -5 15 -59 -1 -183 -23 -192
-25 -238 -10 -233 20 7 97 -28 136 -62 18 -17 44 -31 56 -31 101 -7 117 -16
120 -66 2 -23 13 -39 49 -66 71 -54 320 -180 341 -172 15 6 17 26 19 174 4
210 0 299 -11 331 -5 14 -12 37 -15 52 -7 32 -34 52 -107 78 -49 18 -55 19
-77 4 -29 -19 -103 -15 -124 7 -45 47 -75 100 -45 82 6 -4 4 5 -6 21 -23 34
-15 46 13 21 20 -18 21 -18 32 13 10 25 18 32 39 32 15 0 29 7 33 16 9 23 8
24 -16 24 -13 0 -31 7 -41 14 -13 10 -27 11 -62 3 -56 -13 -102 0 -128 36 -23
30 -26 89 -7 112 20 24 78 29 135 11 28 -9 77 -16 109 -16 62 0 100 -13 160
-54 29 -19 51 -26 89 -26 45 0 49 2 44 20 -3 11 1 27 9 34 8 8 14 19 14 24 0
5 9 17 20 27 18 16 23 17 45 5 34 -18 32 -53 -5 -93 -34 -36 -37 -49 -15 -71
8 -8 15 -18 15 -23 1 -7 58 -56 96 -81 5 -4 20 -31 33 -61 13 -30 45 -86 72
-126 39 -56 49 -79 49 -112 0 -61 -11 -103 -26 -103 -23 0 -36 -50 -29 -112
l6 -57 -73 -36 c-40 -20 -76 -40 -80 -44 -4 -3 -5 -23 -1 -44 5 -32 10 -37 39
-43 18 -3 72 -1 119 6 93 13 213 6 241 -15 19 -13 21 -11 -63 -85 -39 -33 -30
-56 36 -88 49 -24 56 -30 42 -39 -13 -9 -7 -11 29 -10 34 2 45 -2 48 -14 2
-11 -7 -20 -24 -26 l-28 -9 40 -20 c103 -53 181 -97 199 -114 30 -27 137 -93
151 -93 7 0 10 -6 7 -14 -3 -8 3 -13 18 -13 20 0 21 -2 9 -10 -13 -9 -13 -12
2 -24 10 -7 15 -16 11 -19 -6 -7 12 -11 31 -8 5 1 6 -4 4 -11 -3 -7 5 -24 18
-38 22 -23 24 -23 25 -5 0 15 2 16 6 5 7 -16 33 -45 33 -36 0 3 13 -8 29 -25
17 -17 27 -37 25 -44 -3 -7 -1 -16 5 -20 6 -3 8 -17 5 -31 -4 -15 -2 -24 6
-24 6 0 9 -4 5 -9 -3 -5 6 -45 21 -88 43 -131 125 -403 134 -447 5 -22 14 -59
20 -81 7 -22 14 -58 17 -80 3 -22 9 -44 14 -49 5 -6 9 -18 9 -29 0 -10 4 -16
9 -13 5 3 11 -8 15 -24 4 -21 11 -30 25 -30 24 0 41 -28 41 -66 0 -15 7 -35
15 -44 12 -13 15 -48 16 -171 0 -85 -1 -161 -3 -169 -1 -8 1 -57 6 -107 l8
-93 138 0 138 0 6 57 c8 60 8 78 8 173 -1 30 0 75 2 100 1 25 -1 68 -6 95 -17
94 37 177 95 146 34 -18 47 -52 47 -125 0 -39 5 -69 15 -82 21 -28 18 -52 -10
-86 -21 -25 -25 -39 -23 -82 2 -28 7 -54 12 -58 5 -3 11 -27 12 -52 5 -85 6
-86 89 -86 l74 0 -5 113 c-2 61 -6 135 -8 163 -3 29 0 69 4 90 5 22 11 117 14
213 7 208 10 231 44 269 93 101 187 17 182 -161 -4 -126 0 -230 11 -302 11
-74 13 -309 3 -350 -6 -25 -5 -25 58 -25 68 0 98 16 98 53 0 9 5 17 11 17 8 0
7 6 -2 17 -11 13 -11 17 -1 20 8 3 12 27 12 73 0 59 3 69 20 75 10 3 31 0 46
-8 26 -14 27 -17 29 -109 2 -106 7 -120 38 -114 12 3 59 12 104 21 233 44 519
158 754 301 243 146 463 342 645 574 229 290 404 692 468 1070 29 173 36 339
36 941 l0 597 -43 -5 c-38 -5 -45 -2 -60 21 -14 21 -16 43 -13 124 6 121 2
126 -105 131 -56 2 -84 -1 -107 -13 -31 -16 -49 -52 -43 -88 1 -10 -4 -18 -11
-19 -7 0 -145 -2 -306 -4 -194 -2 -298 -7 -305 -14 -7 -7 -12 -115 -14 -318
-2 -170 -6 -408 -9 -531 -6 -213 -7 -225 -29 -250 -17 -20 -35 -27 -76 -31
-82 -9 -102 -4 -121 30 -28 47 -42 145 -31 214 5 33 6 141 2 240 -8 232 -5
645 6 760 7 83 10 92 38 114 21 18 43 25 81 27 51 2 232 22 273 30 18 3 20 9
16 35 -6 39 21 97 53 111 13 6 24 17 24 25 0 10 12 13 43 12 23 -1 52 3 63 9
18 9 25 8 40 -9 12 -13 21 -16 28 -9 21 21 27 8 24 -52 -3 -61 -4 -63 -40 -82
-41 -21 -50 -51 -20 -60 10 -3 85 -8 167 -11 83 -2 223 -8 313 -11 l162 -7 0
1644 c0 1638 -4 1838 -36 2023 -24 145 -32 167 -52 157 -67 -34 -155 -43 -180
-18 -27 28 -21 89 13 139 29 41 30 46 19 88 -15 62 -7 120 16 120 10 0 20 -5
22 -12 2 -6 10 -8 16 -4 16 9 11 25 -41 139 -39 85 -41 87 -62 73 -12 -8 -40
-18 -61 -22 -99 -18 -276 -130 -307 -193 -4 -9 -24 -41 -45 -72 -97 -146 -99
-149 -161 -276 -16 -34 -34 -70 -40 -80 -5 -10 -20 -47 -34 -83 -59 -155 -62
-162 -92 -178 -16 -9 -34 -23 -38 -29 -7 -11 -46 -19 -47 -10 -20 136 -25 207
-19 259 5 42 3 88 -7 137 l-14 74 36 86 c58 139 94 253 95 303 0 18 9 47 20
63 11 17 22 38 25 48 4 9 9 17 13 17 6 0 25 40 67 138 8 18 14 46 14 62 0 15
6 31 13 33 8 4 7 6 -3 6 -8 1 -21 10 -28 21 -7 11 -18 17 -27 14 -12 -5 -15 2
-15 35 0 23 -3 41 -8 41 -9 0 -42 -37 -42 -48 0 -12 -39 -42 -55 -42 -9 0 -19
8 -22 18 -4 9 -14 22 -22 29 -14 11 -14 12 4 13 19 1 19 1 3 14 -10 7 -18 25
-18 40 0 39 -27 32 -45 -11 -12 -29 -14 -47 -7 -76 6 -22 6 -51 1 -70 -4 -17
-11 -50 -14 -71 -5 -28 -9 -35 -15 -26 -7 12 -12 11 -29 -4 -12 -11 -21 -25
-21 -31 0 -7 -6 -18 -13 -24 -19 -15 -42 13 -51 62 -5 28 -12 37 -26 37 -11 0
-20 7 -20 15 0 8 -4 15 -10 15 -5 0 -10 -7 -10 -15 0 -8 -6 -15 -14 -15 -12 0
-13 7 -5 32 5 18 9 36 9 40 0 14 -28 8 -33 -6 -6 -16 -47 -10 -47 7 0 6 -3 8
-6 5 -3 -3 2 -22 10 -42 8 -20 12 -36 8 -36 -5 0 -13 -18 -19 -40 l-10 -40 33
0 c33 0 34 -1 34 -39 0 -22 4 -41 9 -43 11 -4 21 -98 10 -98 -5 0 -9 5 -9 10
0 6 -11 10 -25 10 -22 0 -25 -4 -25 -40 0 -33 -3 -40 -20 -40 -17 0 -20 -7
-20 -40 l0 -40 -50 0 c-38 0 -50 4 -50 15 0 8 -4 15 -9 15 -16 0 -24 -40 -11
-55 9 -11 4 -18 -24 -37 -20 -13 -36 -30 -36 -38 0 -8 -3 -25 -6 -37 -5 -19
-2 -23 16 -23 17 0 20 -3 12 -13 -12 -14 -102 -11 -102 4 0 5 4 9 8 9 5 0 15
33 22 73 7 39 14 81 16 92 2 11 11 25 19 31 12 9 13 13 4 16 -10 3 -10 11 0
36 16 38 20 38 54 12 34 -27 37 -26 37 15 0 23 -5 35 -14 35 -7 0 -16 9 -19
20 -6 23 -27 27 -27 5 0 -8 -4 -15 -10 -15 -5 0 -10 16 -10 35 0 19 -4 35 -10
35 -5 0 -7 7 -4 15 4 10 -3 16 -23 20 -64 15 -93 27 -93 41 0 8 10 14 25 14
16 0 25 6 25 15 0 8 7 15 15 15 8 0 24 9 35 20 17 17 20 31 17 70 -2 27 -9 55
-14 62 -6 7 -13 24 -16 38 -3 14 -14 53 -23 88 -17 59 -17 66 -2 110 9 26 20
73 24 106 5 45 11 60 25 63 11 3 19 14 19 24 0 11 -5 16 -13 13 -9 -3 -14 8
-16 38 -7 88 -5 354 3 389 l8 35 -76 23 c-106 31 -247 60 -339 67 l-78 7 3
-114z m65 -835 c-3 -3 -12 -4 -19 -1 -8 3 -5 6 6 6 11 1 17 -2 13 -5z m1033
-63 c0 -5 8 -11 18 -13 14 -3 12 -7 -11 -22 -27 -18 -28 -18 -41 -1 -10 14
-11 22 -2 31 13 15 36 18 36 5z m100 -27 c0 -9 -7 -14 -17 -12 -25 5 -28 28
-4 28 12 0 21 -6 21 -16z m-48 -196 c3 -7 3 -34 0 -60 -4 -42 -7 -48 -27 -48
-13 0 -27 -4 -30 -10 -10 -16 -42 -12 -49 6 -10 26 23 84 48 84 20 0 20 1 -4
20 l-25 20 41 0 c25 0 44 -5 46 -12z m-662 -595 c0 -16 -25 -73 -32 -73 -11 0
-10 8 4 47 11 29 28 45 28 26z m35 -32 c3 -5 1 -12 -5 -16 -5 -3 -10 1 -10 9
0 18 6 21 15 7z m1435 -220 c0 -21 -3 -53 -6 -70 l-7 -32 -18 31 c-24 38 -24
65 -1 95 22 30 32 23 32 -24z m-2484 -296 c-4 -14 -11 -25 -16 -25 -15 0 -12
48 3 53 18 6 20 1 13 -28z m954 -101 c0 -8 -4 -12 -10 -9 -5 3 -10 10 -10 16
0 5 5 9 10 9 6 0 10 -7 10 -16z m-27 -31 c4 -2 7 -11 7 -19 0 -8 5 -14 10 -14
6 0 10 -10 10 -22 0 -24 46 -78 66 -78 9 0 12 -19 11 -70 -1 -43 -6 -70 -13
-70 -24 0 -36 -83 -33 -234 2 -83 0 -156 -4 -163 -8 -13 -91 -43 -120 -43 -23
0 -86 -29 -106 -48 -21 -20 -61 -81 -61 -93 0 -5 -4 -17 -10 -27 -5 -9 -25
-51 -44 -94 -41 -89 -86 -141 -119 -136 -18 2 -22 9 -20 32 1 17 -3 36 -10 44
-34 42 -49 203 -23 246 7 11 26 59 42 106 16 47 38 96 50 109 13 14 28 54 38
101 10 44 22 80 28 82 6 2 11 19 10 37 0 23 7 41 24 58 13 13 24 30 24 38 0 8
6 18 13 22 7 4 28 27 46 51 24 31 31 49 27 66 -4 15 0 28 9 36 8 7 15 21 15
31 0 11 6 19 13 19 8 0 19 11 25 25 11 23 16 25 49 19 21 -4 41 -9 46 -11z
m324 -29 c-3 -3 -12 -4 -19 -1 -8 3 -5 6 6 6 11 1 17 -2 13 -5z m-518 -78 c9
-10 8 -16 -4 -26 -13 -11 -15 -8 -15 14 0 30 3 32 19 12z m1391 0 c77 -9 156
-25 207 -42 75 -25 86 -26 121 -15 29 10 44 10 59 2 11 -5 23 -8 26 -5 3 3 11
-4 17 -16 6 -12 9 -24 6 -28 -3 -3 -6 0 -6 6 0 7 -10 12 -21 12 -18 0 -19 -3
-9 -15 15 -18 5 -65 -13 -65 -7 0 -18 5 -25 12 -9 9 -12 9 -12 -1 0 -7 -6 -11
-13 -8 -30 12 -68 -198 -45 -249 13 -27 28 -32 28 -9 0 11 11 15 40 15 l40 0
0 -40 c0 -30 -7 -47 -25 -65 -31 -32 -49 -32 -43 0 12 62 -56 -6 -72 -72 -6
-26 -17 -91 -24 -145 -15 -109 -35 -150 -99 -201 -45 -36 -124 -77 -148 -77
-8 0 -24 7 -35 15 -10 8 -27 15 -37 15 -24 0 -99 39 -114 59 -8 10 -13 56 -13
126 0 128 -23 329 -47 430 -12 50 -26 79 -51 107 -69 77 -59 138 37 211 80 61
92 63 271 43z m430 -16 c0 -5 -2 -10 -4 -10 -3 0 -8 5 -11 10 -3 6 -1 10 4 10
6 0 11 -4 11 -10z m-880 -55 c0 -8 5 -15 10 -15 7 0 7 -6 0 -19 -5 -11 -10
-29 -10 -40 0 -12 -6 -21 -14 -21 -7 0 -16 -10 -19 -21 -4 -16 -11 -20 -26
-16 -17 4 -21 0 -22 -21 0 -24 -2 -22 -15 13 -13 34 -13 40 1 48 8 4 15 14 15
22 0 27 42 85 61 85 10 0 19 -7 19 -15z m-2479 -79 c110 -7 225 -61 204 -96
-8 -14 15 -24 28 -11 27 27 116 2 135 -37 19 -41 16 -318 -5 -392 -13 -48 -14
-69 -6 -107 10 -43 9 -48 -14 -71 -22 -22 -25 -23 -42 -8 -10 9 -23 16 -29 16
-6 0 -21 34 -34 76 -19 68 -25 78 -55 90 -18 8 -41 14 -52 14 -27 0 -64 49
-56 75 4 11 10 59 14 106 5 64 13 93 29 116 12 17 22 36 22 42 0 35 -90 -25
-124 -83 -30 -52 -69 -83 -111 -88 -21 -2 -31 -10 -35 -26 -7 -30 -54 -78 -95
-98 -36 -17 -68 -16 -205 6 -177 28 -181 32 -175 221 3 74 7 143 9 154 3 11 5
23 5 28 1 4 27 19 58 33 47 20 59 23 68 11 5 -7 18 -16 27 -20 10 -3 24 -21
31 -40 15 -34 61 -72 76 -62 5 3 12 -1 14 -7 3 -7 6 11 6 40 1 68 13 89 63
112 42 18 54 19 249 6z m-4537 -175 c57 -27 139 -48 216 -56 89 -9 130 -22
168 -54 l33 -27 -22 -42 c-13 -24 -33 -45 -45 -48 -28 -7 -277 14 -309 26 -13
5 -69 12 -123 16 -110 7 -113 10 -127 82 -8 37 15 72 45 72 9 0 21 5 28 12 11
11 65 34 86 37 5 0 28 -8 50 -18z m560 -73 c28 -12 43 -60 31 -97 -10 -31 -52
-38 -94 -15 -47 25 -52 60 -15 97 30 30 41 32 78 15z m6136 2 c0 -5 -5 -10
-11 -10 -5 0 -7 5 -4 10 3 6 8 10 11 10 2 0 4 -4 4 -10z m210 0 c0 -13 26 -13
49 2 10 6 26 8 34 5 15 -5 15 -10 2 -46 -16 -45 -14 -136 4 -169 6 -12 20 -26
30 -32 14 -7 22 -30 31 -95 7 -47 16 -88 21 -90 11 -8 45 -83 75 -172 l25 -72
-22 -30 c-12 -16 -43 -39 -70 -50 -44 -20 -52 -20 -101 -7 -29 8 -60 17 -69
21 -9 3 -21 -1 -28 -9 -7 -8 -34 -22 -62 -32 -27 -10 -49 -22 -49 -27 0 -4 -4
-5 -10 -2 -5 3 -10 13 -10 22 0 9 -7 25 -17 35 -11 13 -12 18 -3 18 7 0 19 8
26 18 12 15 13 14 14 -10 0 -17 6 -28 14 -28 10 0 12 12 8 50 -3 33 -1 50 6
50 7 0 9 11 6 28 -4 20 1 35 20 57 14 17 26 26 26 21 0 -6 6 -2 13 9 8 10 19
15 24 12 25 -15 31 82 11 160 -10 43 -10 48 10 61 25 16 28 42 10 73 -10 17
-10 23 0 26 6 3 12 11 12 18 0 7 7 16 16 19 9 3 14 15 12 28 -2 18 -10 24 -40
26 -29 2 -37 8 -42 28 -7 26 -26 33 -26 9 0 -8 -7 -15 -15 -15 -22 0 -20 69 3
86 20 16 62 18 62 4z m-190 -50 c0 -5 -4 -10 -10 -10 -5 0 -10 5 -10 10 0 6 5
10 10 10 6 0 10 -4 10 -10z m160 -64 c0 -3 -4 -8 -10 -11 -5 -3 -10 -1 -10 4
0 6 5 11 10 11 6 0 10 -2 10 -4z m-1695 -12 c32 -13 46 -61 40 -132 -3 -37 -7
-90 -9 -119 -3 -29 -7 -57 -11 -63 -4 -6 0 -21 7 -33 8 -12 22 -42 32 -67 15
-38 16 -51 6 -85 -30 -102 -40 -106 -83 -29 -23 41 -27 60 -27 119 2 142 -8
239 -24 251 -20 14 -20 53 -2 96 8 18 17 41 20 51 6 18 23 21 51 11z m-2805
-13 c0 -8 -90 -3 -99 5 -2 2 19 4 47 4 29 0 52 -4 52 -9z m5390 -35 c0 -2 -7
-6 -15 -10 -8 -3 -15 -1 -15 4 0 6 7 10 15 10 8 0 15 -2 15 -4z m-5227 -63
c48 -17 61 -43 25 -49 -10 -1 -16 2 -15 8 1 5 -13 18 -31 28 -63 35 -54 40 21
13z m4335 -67 c-10 -7 -18 -25 -18 -40 0 -17 -5 -26 -15 -26 -9 0 -19 -8 -22
-17 -10 -27 -33 -47 -43 -37 -11 12 -19 124 -8 130 4 3 8 0 8 -5 0 -6 18 -11
40 -11 37 0 40 2 40 27 0 26 1 27 18 10 16 -17 16 -19 0 -31z m-4218 -21 c11
-13 10 -15 -6 -9 -25 9 -44 24 -44 36 0 11 32 -6 50 -27z m1700 -12 c67 -20
80 -29 80 -57 0 -12 5 -27 12 -34 17 -17 -8 -42 -43 -42 -16 0 -29 -4 -29 -8
0 -14 -128 -13 -163 2 -27 11 -38 24 -50 59 -15 44 -14 46 6 65 47 42 82 45
187 15z m-1950 -5 c0 -6 -6 -5 -15 2 -8 7 -15 14 -15 16 0 2 7 1 15 -2 8 -4
15 -11 15 -16z m1462 0 c12 -20 9 -84 -5 -96 -52 -43 -113 -7 -104 62 3 21 11
43 19 48 17 12 79 2 90 -14z m-1363 -9 c12 -12 20 -23 18 -26 -7 -6 -57 27
-57 38 0 15 15 10 39 -12z m511 -29 c0 -5 -2 -10 -4 -10 -3 0 -8 5 -11 10 -3
6 -1 10 4 10 6 0 11 -4 11 -10z m-845 -42 c-2 -29 -17 -33 -33 -8 -10 17 -10
20 3 20 8 0 15 5 15 11 0 5 4 8 8 5 5 -3 8 -15 7 -28z m45 -38 c0 -5 -4 -10
-10 -10 -5 0 -10 5 -10 10 0 6 5 10 10 10 6 0 10 -4 10 -10z m925 -79 c-4 -3
-15 4 -25 17 -11 13 -22 22 -25 22 -4 -1 -10 2 -13 6 -4 4 -1 4 6 0 7 -4 12
-2 12 6 0 7 12 0 26 -16 14 -15 22 -31 19 -35z m-1715 -16 c0 -8 -4 -15 -10
-15 -5 0 -10 7 -10 15 0 8 5 15 10 15 6 0 10 -7 10 -15z m875 -46 c11 -17 -1
-21 -15 -4 -8 9 -8 15 -2 15 6 0 14 -5 17 -11z m4345 -31 c20 -21 20 -21 35
-2 14 18 14 18 15 -7 0 -35 -67 -109 -81 -88 -5 8 -9 18 -9 23 0 5 -16 6 -35
3 -51 -8 -49 12 8 74 22 25 41 24 67 -3z m-4312 -10 c-5 -13 52 -48 77 -48 18
0 20 26 3 34 -7 3 -1 5 14 3 15 -2 32 0 39 4 8 5 18 0 27 -12 7 -10 20 -19 28
-19 8 0 14 -5 14 -12 0 -18 31 -48 49 -48 13 0 13 2 2 9 -10 7 -10 10 -1 16 8
5 16 1 21 -8 5 -8 17 -13 26 -11 28 6 73 -43 73 -79 0 -7 16 -33 36 -56 34
-39 36 -44 20 -59 -15 -15 -16 -15 -16 6 0 14 -4 21 -11 17 -6 -4 -8 -13 -5
-21 6 -15 -14 -19 -29 -5 -6 4 -23 11 -38 15 -24 6 -30 3 -34 -14 -5 -18 -13
-20 -82 -19 -42 0 -98 4 -126 8 l-50 7 58 8 c31 4 57 11 57 15 0 4 -29 14 -65
21 -36 7 -65 17 -65 22 0 5 6 8 13 7 6 -1 23 -1 37 0 l24 1 -22 16 c-18 13
-21 19 -11 30 9 11 8 14 -5 14 -9 0 -16 5 -16 11 0 17 -27 39 -49 39 -18 0
-20 3 -9 19 9 15 8 26 -5 52 -8 18 -13 37 -11 41 8 13 36 9 32 -4z m-498 -120
c0 -13 -23 -5 -28 10 -2 7 2 10 12 6 9 -3 16 -11 16 -16z m-780 -8 c0 -5 -10
-15 -22 -21 -23 -12 -23 -12 -4 10 21 23 26 26 26 11z m1684 -22 c8 -12 12
-26 9 -32 -4 -5 -11 0 -16 12 -6 12 -14 22 -19 22 -4 0 -8 5 -8 10 0 17 18 11
34 -12z m-1659 -68 c-10 -11 -20 -18 -23 -15 -3 3 3 14 13 25 10 11 20 18 23
15 3 -3 -3 -14 -13 -25z m1692 -2 c-3 -8 -6 -5 -6 6 -1 11 2 17 5 13 3 -3 4
-12 1 -19z m4336 3 c74 -17 121 -54 146 -113 12 -28 21 -56 21 -62 0 -20 51
-116 62 -116 29 0 58 64 58 130 0 19 5 52 11 73 8 31 14 37 38 37 57 0 62 -13
72 -176 9 -147 5 -254 -12 -285 -15 -30 -66 -31 -125 -3 -39 18 -63 24 -82 19
-15 -3 -39 -9 -54 -12 -15 -3 -30 -13 -33 -23 -3 -10 -12 -21 -20 -24 -8 -3
-15 -11 -15 -18 0 -19 -75 -98 -94 -98 -9 0 -16 -4 -16 -10 0 -27 -80 -92
-145 -119 -89 -36 -116 -29 -132 31 -10 37 -8 48 13 96 13 29 39 69 57 87 39
39 47 57 76 176 15 66 18 95 11 120 -6 19 -10 49 -10 66 0 18 -4 33 -10 33 -5
0 -10 17 -10 38 0 47 -6 54 -31 39 -14 -8 -21 -9 -30 0 -14 14 10 68 31 68 8
0 28 12 43 25 44 39 81 43 180 21z m-5138 -46 c11 -2 65 -11 120 -19 114 -17
125 -20 178 -53 49 -30 181 -76 185 -64 3 9 49 -2 107 -24 16 -7 18 -6 8 6
-24 24 -13 32 38 27 36 -4 54 -11 65 -27 9 -12 19 -19 24 -16 4 3 6 -5 2 -17
-5 -20 -4 -21 11 -9 10 8 27 11 42 7 38 -10 30 -26 -12 -27 l-38 -1 33 -14
c46 -20 40 -25 -20 -18 l-53 6 30 -32 c27 -28 28 -32 13 -41 -10 -6 -18 -19
-18 -29 0 -11 -5 -20 -11 -20 -6 0 -8 -7 -5 -16 8 -22 -23 -84 -43 -85 -9 -1
-43 0 -76 1 -51 1 -69 7 -122 42 -35 22 -63 44 -63 49 0 5 -11 15 -25 21 -14
6 -25 15 -25 20 0 4 9 3 20 -4 16 -11 22 -9 34 7 20 26 20 63 0 83 -22 21 -80
52 -99 52 -9 0 -32 11 -53 25 -35 23 -46 25 -135 22 -53 -1 -97 1 -97 4 0 4
-24 4 -52 2 -29 -3 -68 -5 -86 -6 -21 0 -28 -3 -20 -9 9 -5 9 -8 1 -8 -6 0
-23 14 -37 32 -24 32 -26 32 -61 19 -42 -15 -59 -6 -30 15 12 9 40 15 70 14
68 -2 103 1 88 7 -7 2 -13 18 -13 34 0 24 6 33 33 44 17 8 41 12 52 9 11 -3
29 -7 40 -9z m1020 4 c11 -17 -1 -21 -15 -4 -8 9 -8 15 -2 15 6 0 14 -5 17
-11z m3712 -21 c-3 -7 -5 -2 -5 12 0 14 2 19 5 13 2 -7 2 -19 0 -25z m1065 5
c36 -34 35 -55 -3 -87 -35 -30 -74 -33 -108 -10 -19 14 -22 23 -18 52 12 73
76 96 129 45z m-4817 7 c3 -5 1 -10 -4 -10 -6 0 -11 5 -11 10 0 6 2 10 4 10 3
0 8 -4 11 -10z m-1965 -19 c0 -6 -4 -13 -10 -16 -5 -3 -10 1 -10 9 0 9 5 16
10 16 6 0 10 -4 10 -9z m5820 -27 c0 -8 -5 -14 -12 -14 -6 0 -26 -16 -44 -36
-25 -27 -38 -34 -54 -29 -25 8 -25 11 0 60 16 31 27 41 53 46 34 5 57 -5 57
-27z m-1112 -1 c2 -8 -5 -13 -17 -13 -12 0 -21 6 -21 16 0 18 31 15 38 -3z
m-4695 -33 c-3 -11 -12 -20 -19 -20 -17 0 -18 12 -2 28 18 18 27 15 21 -8z
m4727 -20 c0 -5 -4 -10 -10 -10 -5 0 -10 5 -10 10 0 6 5 10 10 10 6 0 10 -4
10 -10z m-2119 -17 c0 -10 2 -27 4 -38 2 -10 -1 -25 -6 -32 -6 -6 -8 -21 -4
-32 3 -10 1 -22 -5 -26 -5 -3 -10 0 -11 7 -1 19 -6 40 -14 61 -5 12 -2 17 9
17 12 0 14 7 10 30 -4 19 -2 30 5 30 6 0 11 -8 12 -17z m2876 -3 c6 -22 32
-33 57 -24 15 6 17 1 14 -31 l-3 -38 -52 -4 c-44 -3 -53 -1 -62 16 -16 29 -13
61 4 61 8 0 15 9 15 20 0 26 20 26 27 0z m373 -10 c0 -5 -12 -10 -28 -10 -21
0 -30 -7 -41 -31 -18 -40 -54 -38 -59 5 -3 26 -1 28 22 22 19 -5 26 -3 26 9 0
11 11 15 40 15 22 0 40 -4 40 -10z m35 0 c3 -5 1 -10 -4 -10 -6 0 -11 5 -11
10 0 6 2 10 4 10 3 0 8 -4 11 -10z m-485 -67 c0 -16 -6 -23 -20 -23 -22 0 -23
3 -13 50 6 31 7 32 20 15 7 -11 13 -29 13 -42z m1312 44 c13 -11 15 -23 10
-66 -8 -60 -29 -84 -59 -65 -19 12 -31 54 -16 54 5 0 7 16 5 36 -6 49 23 69
60 41z m-5812 -49 c76 -22 80 -23 100 -31 8 -3 22 -8 30 -10 49 -17 -53 -3
-131 17 -52 13 -129 27 -172 31 -42 4 -80 12 -83 17 -10 16 182 -2 256 -24z
m70 -65 c94 -19 141 -35 236 -79 81 -37 91 -44 135 -88 32 -31 36 -60 15 -117
-34 -95 -142 -207 -221 -229 -50 -14 -129 -4 -250 32 -93 27 -153 58 -194 102
-28 29 -35 45 -39 89 -4 48 -2 54 19 63 13 6 47 10 74 9 28 -1 60 2 73 6 12 5
56 4 99 -1 84 -11 103 -4 103 36 0 13 6 24 13 24 16 -1 72 -52 81 -75 5 -14 9
-16 18 -7 16 16 28 15 28 -3 0 -8 9 -15 20 -15 11 0 20 7 20 16 0 17 35 11 58
-11 11 -10 19 -8 40 12 19 18 27 20 34 11 6 -10 8 -9 8 4 0 9 -4 19 -10 23 -5
3 -7 12 -3 20 4 11 1 13 -13 8 -11 -4 -15 -3 -11 4 15 24 -85 79 -118 66 -8
-3 -46 5 -84 17 -71 24 -108 22 -97 -5 6 -17 -13 -18 -54 -5 l-25 8 28 1 c18
1 27 6 25 14 -6 15 -124 27 -158 14 -32 -11 -150 -17 -150 -7 0 25 35 71 58
76 15 3 32 7 37 9 18 6 129 -6 205 -22z m-379 -13 c10 -6 19 -17 19 -25 0 -19
-16 -19 -24 0 -3 8 -13 15 -23 14 -16 0 -15 -1 2 -9 18 -7 16 -10 -17 -24 -43
-18 -45 -23 -20 -42 11 -9 13 -13 4 -14 -7 0 -10 -5 -7 -11 6 -9 -23 -9 -65 0
-3 1 2 6 10 11 12 8 11 12 -8 30 -12 11 -22 29 -22 40 0 19 3 20 90 33 14 3
29 5 33 6 5 0 17 -4 28 -9z m2029 -21 c0 -5 -4 -9 -10 -9 -5 0 -10 7 -10 16 0
8 5 12 10 9 6 -3 10 -10 10 -16z m3117 -55 c5 -15 -19 -44 -36 -44 -6 0 -11
-6 -11 -13 0 -14 -35 -47 -49 -47 -5 0 -14 -7 -21 -15 -7 -9 -15 -13 -18 -10
-11 10 -12 45 -2 45 6 0 10 7 10 16 0 9 16 33 36 54 28 28 42 36 61 32 13 -3
27 -11 30 -18z m-3097 -10 c0 -8 -4 -12 -10 -9 -5 3 -10 10 -10 16 0 5 5 9 10
9 6 0 10 -7 10 -16z m2970 1 c0 -8 -7 -15 -16 -15 -14 0 -14 3 -4 15 7 8 14
15 16 15 2 0 4 -7 4 -15z m-990 -35 c0 -11 -4 -20 -10 -20 -5 0 -10 9 -10 20
0 11 5 20 10 20 6 0 10 -9 10 -20z m-3650 -20 c0 -11 -4 -20 -10 -20 -5 0 -10
9 -10 20 0 11 5 20 10 20 6 0 10 -9 10 -20z m4569 -16 c-9 -11 -15 -12 -23 -4
-8 8 -7 13 4 20 20 12 33 1 19 -16z m-5013 6 c34 0 20 -20 -14 -21 -21 -1 -23
-2 -7 -6 11 -3 23 -10 26 -15 3 -5 21 -17 40 -26 29 -15 35 -24 42 -67 15 -92
74 -142 231 -195 89 -30 201 -50 284 -50 44 -1 46 -2 28 -15 -19 -14 -19 -15
-1 -15 20 0 19 -1 122 96 43 39 81 86 94 113 43 90 73 106 144 77 51 -22 61
-52 42 -123 -22 -80 -26 -203 -5 -153 10 24 11 23 24 -25 7 -27 13 -68 14 -91
0 -22 6 -48 13 -59 13 -17 15 -17 30 6 15 21 15 25 2 46 -20 30 -12 29 44 -5
112 -68 274 -115 393 -113 l78 0 -24 -38 c-13 -21 -24 -44 -23 -52 1 -8 -6
-77 -17 -154 -12 -97 -29 -171 -53 -240 -52 -149 -54 -153 -69 -166 -8 -6 -14
-22 -14 -35 0 -26 -144 -178 -163 -171 -14 4 -47 -24 -47 -40 0 -7 -7 -13 -15
-13 -9 0 -15 9 -15 24 0 13 -6 26 -13 29 -15 6 -41 -29 -32 -43 6 -9 -68 -50
-91 -50 -6 0 -27 -19 -45 -42 -47 -58 -70 -78 -81 -72 -5 4 -22 -9 -37 -27
-28 -33 -46 -41 -93 -40 -17 1 -32 -7 -41 -20 -12 -16 -22 -20 -44 -15 -17 4
-50 2 -74 -3 -26 -6 -48 -6 -53 -1 -5 5 -21 7 -35 4 -26 -5 -44 7 -74 48 -10
14 -21 15 -74 7 -35 -5 -73 -5 -85 0 -13 4 -29 6 -36 4 -7 -3 -22 3 -32 12
-10 9 -24 14 -29 10 -6 -3 -11 -2 -11 4 0 6 -13 24 -30 41 -16 17 -30 35 -30
41 0 6 -5 7 -10 4 -6 -3 -14 4 -19 17 -5 13 -18 32 -30 42 -11 11 -21 28 -21
38 0 11 -11 23 -25 28 -14 5 -31 22 -38 38 -8 17 -18 26 -29 24 -10 -2 -19 5
-23 19 -4 12 -20 35 -36 50 -28 28 -39 46 -19 34 6 -3 10 2 10 13 0 10 -11 24
-25 30 -14 6 -27 24 -31 39 -4 15 -15 33 -24 40 -9 6 -25 40 -35 75 -11 35
-22 65 -25 68 -6 4 -33 87 -62 192 -6 20 -16 39 -23 42 -9 3 -10 16 -5 47 5
24 5 65 1 91 -5 26 -5 45 -1 43 4 -3 10 41 12 96 3 55 10 105 17 112 8 8 11 8
11 -3 0 -7 3 -11 6 -8 3 4 1 15 -5 26 -8 15 -7 23 4 32 8 6 19 27 25 46 10 30
10 37 -5 48 -19 13 -24 88 -7 109 4 7 9 26 10 42 1 17 7 42 13 58 9 22 16 26
33 21 11 -3 25 -10 31 -15 23 -22 47 -8 68 40 20 49 49 74 75 65 8 -2 25 -4
38 -4z m1222 -47 c-16 -2 -40 -2 -55 0 -16 2 -3 4 27 4 30 0 43 -2 28 -4z
m2888 -60 c13 -32 13 -44 3 -78 -21 -69 -27 -68 -43 8 -6 25 9 107 19 107 3 0
12 -17 21 -37z m-2808 -5 c-5 -32 -28 -35 -28 -4 0 17 5 26 16 26 10 0 14 -7
12 -22z m976 13 c63 -11 91 -41 106 -118 12 -61 59 -186 72 -191 5 -2 8 -9 8
-17 0 -7 6 -18 14 -24 12 -10 19 -8 37 10 15 15 38 24 69 27 50 5 71 -8 100
-63 21 -39 -3 -116 -61 -199 -34 -48 -49 -80 -49 -102 0 -36 33 -84 58 -84 24
1 65 64 86 135 13 41 29 69 53 91 33 30 39 32 92 27 70 -7 105 -27 97 -55 -2
-12 0 -43 6 -70 10 -42 17 -52 49 -68 20 -11 49 -34 64 -52 26 -31 27 -35 21
-118 -11 -159 -14 -168 -55 -187 -71 -34 -112 -77 -151 -159 -42 -86 -50 -179
-26 -273 21 -82 20 -107 -4 -133 -18 -20 -26 -48 -20 -73 7 -28 -3 -199 -16
-265 -8 -41 -14 -87 -14 -102 0 -33 -12 -41 -51 -33 -25 6 -29 10 -23 28 5 12
8 32 9 44 1 13 4 26 8 29 3 4 4 50 1 103 -4 53 -2 115 4 138 5 22 7 73 4 113
-4 61 -8 73 -27 82 -29 13 -85 -2 -99 -27 -6 -11 -14 -22 -17 -25 -4 -3 -16
-23 -28 -45 -33 -61 -27 -108 24 -206 8 -14 17 -50 20 -80 11 -103 16 -119 30
-119 9 0 15 -9 15 -21 0 -12 8 -28 18 -35 13 -10 14 -15 5 -25 -9 -9 -17 -9
-36 4 -14 9 -34 13 -45 10 -21 -5 -37 -40 -20 -45 14 -5 -53 -75 -79 -83 -16
-4 -26 0 -38 19 -19 28 -12 66 11 66 16 0 17 37 13 350 -1 52 -2 115 -2 140 0
25 0 65 2 90 4 84 -8 313 -19 361 -6 26 -20 55 -31 65 -10 9 -19 23 -19 29 0
7 -7 18 -15 25 -8 7 -15 23 -15 35 0 13 7 25 15 29 8 3 15 12 15 20 0 8 6 16
13 19 9 3 11 59 9 247 -2 134 -5 246 -7 249 -3 2 -16 -1 -29 -9 -26 -13 -46
-72 -46 -133 0 -40 -22 -98 -44 -116 -11 -9 -20 -10 -35 -2 -11 6 -33 11 -49
11 -19 0 -35 8 -46 23 -8 12 -13 15 -10 6 5 -17 -30 -29 -87 -29 -33 0 -36
-15 -10 -49 15 -20 21 -22 39 -12 16 8 38 7 92 -4 39 -8 85 -15 101 -15 l30 0
-3 -76 -3 -76 -54 -28 c-30 -16 -57 -33 -60 -38 -14 -20 -135 -42 -261 -47
-41 -2 -86 -6 -100 -9 -72 -16 -80 -17 -80 -7 0 15 -37 14 -43 -1 -4 -8 -6 -7
-6 3 -1 9 -9 16 -18 15 -27 -2 -26 28 2 58 31 33 50 70 59 113 4 17 14 37 22
44 8 6 14 19 14 27 0 9 22 36 48 61 35 34 55 65 75 117 31 79 66 116 112 120
88 7 134 12 144 18 5 4 10 24 9 44 0 21 7 53 16 70 9 17 16 42 16 57 0 20 -5
25 -24 25 -14 0 -28 -5 -32 -11 -16 -26 -26 16 -30 120 -2 60 -9 122 -14 136
-6 15 -10 46 -10 71 l0 44 43 -1 c23 0 64 -4 91 -8z m-746 -31 c34 -11 75 -27
90 -35 15 -9 18 -13 7 -10 -11 4 -71 20 -134 36 -63 16 -117 32 -120 35 -10
12 92 -6 157 -26z m1712 -39 c0 -11 5 -21 11 -23 21 -7 0 -48 -24 -48 -53 0
-88 57 -49 79 29 18 62 13 62 -8z m-2060 -29 c0 -5 -10 -13 -22 -19 -20 -9
-19 -11 23 -30 24 -12 60 -24 79 -28 47 -8 90 -26 90 -35 0 -5 15 -12 33 -15
38 -9 107 -61 107 -81 0 -8 -1 -14 -2 -14 -72 -11 -81 -10 -114 9 -38 23 -64
27 -64 11 0 -5 9 -10 20 -10 11 0 20 -3 20 -8 0 -4 15 -13 33 -20 17 -8 49
-21 69 -29 20 -9 44 -13 53 -10 9 4 20 -1 27 -13 7 -11 18 -20 25 -20 7 0 10
-7 7 -15 -4 -10 -2 -14 7 -10 8 3 21 0 29 -5 13 -9 13 -11 0 -20 -13 -8 -13
-10 2 -10 29 0 72 46 112 119 47 84 60 87 20 4 -39 -81 -94 -153 -124 -161
-73 -21 -258 12 -362 63 -88 45 -115 70 -137 130 -26 68 -28 130 -6 121 12 -4
14 0 9 22 -4 15 -7 30 -8 33 0 4 10 16 24 27 26 22 50 28 50 14z m3241 -14 c9
-7 21 -37 28 -65 11 -43 10 -58 -1 -83 -15 -36 -35 -38 -73 -8 -26 20 -27 24
-21 82 5 55 22 86 46 86 3 0 13 -6 21 -12z m-3071 -29 c0 -5 -4 -9 -10 -9 -5
0 -10 7 -10 16 0 8 5 12 10 9 6 -3 10 -10 10 -16z m86 -41 c-1 -28 -5 -33 -29
-36 l-28 -3 20 20 c12 12 21 30 21 42 0 11 4 18 9 15 4 -3 8 -20 7 -38z m2254
-28 c0 -6 9 -29 19 -53 31 -69 44 -144 38 -222 -3 -40 -1 -90 4 -112 4 -21 9
-106 10 -189 2 -191 -11 -224 -89 -224 -56 0 -57 2 -43 187 6 92 13 256 15
363 2 107 7 203 10 213 3 9 8 24 11 32 5 17 25 21 25 5z m-3975 -10 c3 -5 1
-10 -4 -10 -6 0 -11 5 -11 10 0 6 2 10 4 10 3 0 8 -4 11 -10z m4395 -72 c0
-31 -3 -38 -20 -38 -22 0 -26 28 -14 90 l7 32 13 -23 c7 -13 13 -41 14 -61z
m320 -149 c11 -8 12 -12 2 -16 -7 -2 -19 -11 -27 -20 -13 -13 -17 -12 -32 3
-16 15 -16 17 2 30 22 17 35 17 55 3z m650 -59 c0 -5 -9 -10 -20 -10 -11 0
-20 5 -20 10 0 6 9 10 20 10 11 0 20 -4 20 -10z m-60 -30 c0 -5 -4 -10 -10
-10 -5 0 -10 5 -10 10 0 6 5 10 10 10 6 0 10 -4 10 -10z m-5500 -36 c20 -38
51 -66 67 -60 16 6 33 -24 33 -58 0 -32 -43 -66 -85 -66 -51 0 -96 37 -132
109 -31 60 -32 65 -15 77 14 10 20 10 33 -2 23 -21 38 -17 49 12 12 31 30 27
50 -12z m4866 18 c6 -4 19 -21 28 -39 9 -18 26 -41 37 -52 22 -20 22 -31 1
-96 -7 -23 -5 -45 10 -90 33 -106 15 -138 -67 -115 -47 13 -68 36 -45 50 16
10 19 79 7 160 -10 69 -10 118 -1 163 6 28 11 32 30 19z m718 -22 c-12 -5 -25
-13 -29 -19 -9 -16 -35 -13 -35 3 0 14 23 22 65 24 19 1 19 0 -1 -8z m1092
-316 c-4 -10 -2 -13 6 -8 8 5 9 -11 4 -59 -4 -41 -3 -68 4 -72 23 -15 2 -115
-25 -115 -76 0 -103 36 -80 103 8 23 15 54 15 68 0 15 7 32 15 39 8 7 15 17
15 23 0 11 30 36 44 37 4 0 5 -7 2 -16z m-1806 -114 c13 -8 13 -11 0 -24 -17
-18 -60 -11 -60 9 0 11 11 18 40 24 3 0 12 -4 20 -9z m370 -44 c0 -36 -15 -46
-72 -46 -40 0 -37 35 5 60 49 30 67 27 67 -14z m-362 -80 c-2 -1 -11 -8 -20
-15 -16 -12 -18 -10 -18 19 0 32 0 33 20 15 11 -10 19 -19 18 -19z m-2714 -62
c19 -7 21 -28 3 -42 -9 -8 -20 -6 -38 6 -42 28 -15 55 35 36z m2010 -20 c8
-20 -3 -84 -14 -84 -8 0 -18 71 -12 89 5 16 19 13 26 -5z m742 -24 c2 0 4 5 4
10 0 6 -8 10 -17 10 -13 0 -14 3 -6 11 9 9 16 8 28 -4 21 -22 4 -50 -47 -74
-21 -10 -38 -23 -38 -29 0 -8 -40 -34 -53 -34 -1 0 -3 11 -3 24 -1 18 5 26 21
30 25 6 54 68 35 74 -5 2 -7 8 -4 13 3 6 20 1 40 -11 20 -11 37 -20 40 -20z
m-2766 -180 c0 -5 -7 -10 -15 -10 -8 0 -15 5 -15 10 0 6 7 10 15 10 8 0 15 -4
15 -10z m2026 -192 c18 -6 39 -25 49 -42 9 -17 30 -55 46 -85 36 -65 35 -95
-2 -99 -19 -2 -33 5 -50 25 -51 60 -73 70 -169 77 -124 10 -152 -1 -246 -92
-20 -19 -22 -37 -33 -247 -11 -205 -28 -345 -42 -345 -5 0 -9 -6 -9 -13 0 -7
-7 -22 -15 -33 -14 -18 -15 -18 -42 11 l-28 30 1 285 c1 328 2 330 94 410 29
25 57 50 64 56 7 6 25 18 41 27 26 13 54 20 160 41 44 8 151 5 181 -6z m525
-134 c7 -8 12 -30 11 -47 -1 -18 -2 -86 -1 -152 0 -66 -5 -142 -11 -170 -10
-45 -29 -187 -31 -225 0 -8 -7 -31 -14 -52 -12 -31 -12 -38 0 -48 8 -7 12 -16
9 -21 -8 -14 -41 -10 -47 5 -4 9 -14 12 -26 9 -15 -4 -21 1 -25 18 -26 121
-40 181 -52 219 -9 29 -12 64 -7 100 3 30 6 89 5 130 0 60 4 84 23 120 13 25
30 60 39 78 23 48 98 70 127 36z m-3857 -20 c12 -5 13 -9 3 -19 -14 -15 -27
-10 -27 11 0 16 2 16 24 8z m-64 -18 c0 -3 -4 -8 -10 -11 -5 -3 -10 -1 -10 4
0 6 5 11 10 11 6 0 10 -2 10 -4z m140 -61 c0 -27 -6 -30 -29 -16 -12 8 -12 12
-2 25 19 23 31 20 31 -9z m-105 -5 c3 -5 -3 -10 -15 -10 -12 0 -18 5 -15 10 3
6 10 10 15 10 5 0 12 -4 15 -10z m-51 -25 c-4 -8 -11 -12 -16 -9 -6 4 -5 10 3
15 19 12 19 11 13 -6z m1905 -36 c37 -61 38 -69 6 -103 -34 -36 -68 -34 -99 7
-32 41 -33 78 -4 117 33 45 59 39 97 -21z m-1512 -35 c-3 -3 -12 -4 -19 -1 -8
3 -5 6 6 6 11 1 17 -2 13 -5z m-110 -70 c-3 -3 -12 -4 -19 -1 -8 3 -5 6 6 6
11 1 17 -2 13 -5z m2177 -425 c33 -26 44 -47 55 -103 11 -57 -12 -99 -66 -121
-48 -21 -92 -9 -146 38 -37 30 -38 35 -31 72 5 26 22 55 52 87 51 55 90 63
136 27z m1938 -135 c20 -12 30 -77 19 -121 -7 -25 -9 -59 -5 -76 9 -41 43 -97
60 -97 28 0 41 -52 40 -162 -2 -126 -9 -139 -59 -114 -19 9 -40 16 -46 16 -6
0 -11 4 -11 8 0 12 -78 49 -118 57 -18 4 -38 2 -45 -3 -7 -5 -24 -12 -39 -16
-19 -4 -39 -26 -69 -71 -28 -43 -48 -65 -61 -65 -15 0 -18 5 -12 23 4 12 11
25 17 28 5 4 7 15 3 24 -3 9 1 23 9 31 17 17 21 94 5 94 -5 0 -10 21 -10 46 0
34 8 60 30 96 20 33 30 61 30 89 0 48 11 72 52 107 16 15 53 49 81 75 47 44
54 48 86 42 20 -4 39 -9 43 -11z m-1428 -18 c-3 -8 -13 -12 -25 -9 -27 7 -24
23 6 23 17 0 23 -4 19 -14z m892 -34 c5 -25 3 -32 -10 -32 -9 0 -16 -8 -16
-20 0 -11 -4 -20 -10 -20 -5 0 -10 1 -11 3 0 1 -2 21 -5 45 -5 34 -3 42 10 42
9 0 16 8 16 17 0 27 19 2 26 -35z m-398 -48 c31 -9 30 -67 -3 -116 -14 -20
-25 -51 -25 -69 0 -29 -34 -99 -47 -99 -16 0 -32 40 -33 77 0 23 -4 45 -10 48
-6 4 -6 12 0 23 5 9 11 29 14 43 5 25 62 99 75 99 3 0 16 -3 29 -6z m1613 -54
c4 -14 7 -51 8 -82 1 -53 -1 -58 -24 -64 -14 -3 -25 -10 -25 -15 0 -5 -7 -9
-15 -9 -11 0 -15 11 -15 40 0 29 4 40 15 40 8 0 15 5 15 10 0 6 -6 10 -14 10
-21 0 -26 25 -10 49 8 11 12 21 9 21 -3 0 0 7 7 15 18 21 41 14 49 -15z
m-1681 -260 c0 -5 -4 -10 -10 -10 -5 0 -10 5 -10 10 0 6 5 10 10 10 6 0 10 -4
10 -10z m14 -247 c7 -62 7 -63 -17 -63 -29 0 -41 23 -27 51 6 11 8 23 5 28 -7
13 17 64 26 54 3 -5 10 -36 13 -70z m10 -141 c14 -46 20 -123 17 -233 -1 -49
-4 -57 -25 -67 -22 -10 -25 -8 -34 16 -5 15 -7 41 -5 58 3 18 0 35 -6 38 -6 4
-11 22 -11 40 0 17 -4 36 -10 42 -6 6 -6 23 1 47 6 21 8 44 6 50 -5 15 32 69
43 62 5 -3 15 -27 24 -53z m23 -540 c-5 -42 -2 -60 14 -85 28 -47 25 -90 -11
-129 -33 -36 -36 -44 -18 -50 7 -3 9 -12 5 -22 -7 -17 -9 -16 -27 7 -11 14
-20 31 -20 39 0 8 -7 23 -15 34 -17 23 -20 105 -3 122 6 6 12 46 13 91 3 100
10 113 43 76 21 -25 24 -36 19 -83z m367 -222 c-3 -63 -11 -74 -19 -29 -5 28
-4 55 4 87 1 2 5 1 9 -2 4 -3 7 -28 6 -56z m327 -51 l22 -31 -22 -44 c-11 -25
-21 -51 -21 -59 0 -8 -4 -15 -10 -15 -5 0 -10 7 -10 16 0 8 -11 32 -25 52 -14
20 -25 41 -25 46 0 12 51 66 61 66 4 0 18 -14 30 -31z m-697 -114 c-5 -36 -3
-50 11 -65 35 -39 11 -130 -34 -130 -25 0 -59 105 -43 131 7 10 12 27 12 38 0
10 7 24 15 31 8 7 15 19 15 26 0 8 7 14 16 14 12 0 14 -8 8 -45z m1116 -25 c0
-5 -5 -10 -11 -10 -5 0 -7 5 -4 10 3 6 8 10 11 10 2 0 4 -4 4 -10z m-426 -86
c3 -9 6 -40 6 -70 0 -34 8 -74 21 -104 11 -27 22 -64 22 -82 2 -29 -2 -34 -37
-46 -22 -7 -52 -10 -67 -7 -29 7 -67 53 -53 64 5 3 10 13 11 21 6 44 23 94 40
112 10 11 16 31 15 45 -4 27 15 83 28 83 4 0 11 -7 14 -16z m438 -67 c8 -20 7
-31 -1 -41 -7 -8 -9 -25 -5 -40 4 -17 2 -26 -6 -26 -6 0 -8 4 -5 10 3 5 1 18
-4 28 -6 11 -7 44 -3 78 3 32 8 50 10 39 2 -11 8 -32 14 -48z"/>
<path d="M4150 5775 c7 -9 15 -13 17 -11 7 7 -7 26 -19 26 -6 0 -6 -6 2 -15z"/>
<path d="M4138 5633 c7 -3 16 -2 19 1 4 3 -2 6 -13 5 -11 0 -14 -3 -6 -6z"/>
<path d="M8400 5590 c0 -5 5 -10 11 -10 5 0 7 5 4 10 -3 6 -8 10 -11 10 -2 0
-4 -4 -4 -10z"/>
<path d="M3611 5069 c-13 -5 -32 -7 -42 -4 -24 8 -90 -5 -83 -16 12 -21 205
-1 220 22 7 12 -64 11 -95 -2z"/>
<path d="M3286 4580 c-76 -42 -126 -84 -126 -107 0 -13 2 -14 18 -2 9 8 19 16
22 19 13 13 89 60 123 75 20 10 37 21 37 26 0 5 6 9 14 9 8 0 18 5 21 10 13
22 -43 6 -109 -30z"/>
<path d="M3606 4601 c-17 -27 59 -160 92 -161 19 0 53 -22 88 -56 17 -17 40
-36 50 -42 18 -10 17 -13 -15 -45 -42 -44 -77 -52 -113 -26 -15 10 -33 19 -40
19 -7 0 -28 9 -46 20 -18 11 -38 18 -44 14 -6 -4 -13 -2 -17 5 -4 6 -22 13
-41 15 -19 3 -48 9 -63 15 -39 15 -159 16 -186 2 -22 -12 -29 -31 -11 -31 6 0
42 -31 80 -70 70 -70 90 -83 90 -55 0 20 20 19 36 -2 12 -17 13 -16 14 4 0 35
11 54 38 64 17 6 29 6 38 -2 8 -7 24 -13 37 -15 56 -9 152 -37 171 -50 11 -8
36 -14 54 -14 19 0 48 -10 65 -22 18 -13 40 -21 49 -20 10 2 21 -4 24 -13 5
-12 14 -15 32 -10 23 6 24 5 18 -31 -4 -20 -15 -45 -25 -55 -19 -21 -27 -20
-186 16 -33 8 -76 17 -95 21 -19 3 -39 10 -45 14 -15 11 -105 33 -111 28 -7
-8 85 -60 95 -54 5 3 11 -1 15 -9 3 -10 20 -15 48 -15 58 0 88 -9 82 -25 -5
-11 4 -16 56 -32 21 -6 99 -4 133 3 16 3 27 1 27 -5 0 -6 -4 -11 -10 -11 -15
0 -50 -33 -50 -47 0 -7 -15 -16 -32 -21 -23 -6 -34 -15 -36 -30 -4 -26 -59
-39 -100 -24 -15 6 -45 13 -67 17 -22 4 -66 16 -99 26 -32 11 -61 18 -64 14
-3 -3 0 -5 7 -5 8 0 10 -7 6 -19 -6 -21 25 -38 46 -25 7 4 9 3 6 -3 -8 -12 58
-44 77 -37 7 3 16 -2 19 -10 3 -8 22 -18 42 -22 19 -3 38 -10 41 -15 10 -16
39 -9 62 16 18 18 30 23 48 19 15 -4 24 -2 24 5 0 6 17 11 40 11 40 0 53 13
25 24 -24 9 -19 38 7 34 11 -2 23 3 25 10 3 6 -3 12 -12 12 -9 0 -13 5 -10 10
4 6 19 9 33 8 21 -2 26 1 24 14 -4 23 16 60 29 53 5 -4 9 -1 9 4 0 6 -9 11
-20 11 -29 0 -24 17 8 25 60 15 137 56 148 80 7 13 9 24 5 23 -3 -1 -35 17
-70 40 -35 23 -70 42 -78 42 -8 0 -11 5 -8 10 3 6 0 10 -7 10 -7 0 -33 18 -56
39 l-44 39 54 7 c96 13 120 39 133 141 6 51 6 52 -26 63 -25 8 -29 14 -21 24
15 17 -3 37 -34 37 -31 0 -94 -28 -100 -45 -11 -27 -91 -40 -124 -20 -6 4 -9
14 -5 23 3 9 3 13 -1 10 -3 -4 -17 4 -30 17 -21 21 -31 23 -86 21 -35 -2 -67
0 -73 4 -19 13 -44 19 -49 11z m314 -721 c0 -5 -4 -10 -9 -10 -6 0 -13 5 -16
10 -3 6 1 10 9 10 9 0 16 -4 16 -10z m-167 -67 c-7 -2 -19 -2 -25 0 -7 3 -2 5
12 5 14 0 19 -2 13 -5z"/>
<path d="M3875 4540 c3 -5 11 -10 16 -10 6 0 7 5 4 10 -3 6 -11 10 -16 10 -6
0 -7 -4 -4 -10z"/>
<path d="M4595 4250 c3 -5 8 -10 11 -10 2 0 4 5 4 10 0 6 -5 10 -11 10 -5 0
-7 -4 -4 -10z"/>
<path d="M4585 4190 c-3 -5 -1 -10 4 -10 6 0 11 5 11 10 0 6 -2 10 -4 10 -3 0
-8 -4 -11 -10z"/>
<path d="M4523 4068 c-15 -19 -26 -58 -16 -58 9 0 35 61 29 67 -2 2 -8 -2 -13
-9z"/>
<path d="M4441 3960 c-19 -22 -38 -37 -43 -34 -4 3 -8 -6 -8 -20 0 -30 26 -36
34 -8 4 11 17 25 30 31 20 11 46 49 46 66 0 17 -30 -1 -59 -35z"/>
<path d="M4310 4879 c0 -5 5 -9 12 -9 6 0 8 -3 5 -7 -4 -3 5 -12 20 -20 32
-17 42 -9 19 16 -19 21 -56 34 -56 20z"/>
<path d="M6898 9333 c7 -3 16 -2 19 1 4 3 -2 6 -13 5 -11 0 -14 -3 -6 -6z"/>
<path d="M6861 9251 c-17 -32 -21 -57 -20 -131 1 -50 5 -92 9 -95 24 -15 80
100 79 162 -2 105 -33 134 -68 64z"/>
<path d="M8240 9270 c0 -5 21 -10 46 -10 27 0 43 4 39 10 -3 6 -24 10 -46 10
-21 0 -39 -4 -39 -10z"/>
<path d="M8240 9210 c0 -25 -4 -30 -25 -30 -29 0 -31 -10 -10 -50 14 -28 14
-30 -3 -30 -10 0 -23 5 -29 11 -8 8 -13 5 -18 -11 -9 -28 -2 -34 24 -21 18 10
21 8 27 -14 3 -14 14 -30 23 -36 12 -7 6 -9 -26 -7 -30 3 -43 0 -43 -9 0 -8
13 -13 36 -13 30 0 43 8 79 48 44 46 44 48 45 120 l0 72 -40 0 c-38 0 -40 -2
-40 -30z"/>
<path d="M8000 9196 c0 -9 -4 -16 -9 -16 -4 0 -14 -21 -21 -47 -7 -27 -21 -55
-31 -64 -15 -13 -17 -26 -12 -73 5 -50 8 -56 29 -56 13 0 29 9 36 20 7 11 20
20 29 20 9 0 23 10 31 22 14 20 14 27 0 56 -14 29 -14 34 -2 43 12 8 10 14
-14 33 -21 17 -26 29 -22 44 4 11 2 23 -4 27 -5 3 -10 -1 -10 -9z"/>
<path d="M8418 9185 c-28 -37 -22 -52 25 -67 40 -14 42 -17 45 -56 2 -28 -1
-42 -9 -42 -8 0 -10 12 -5 40 6 36 4 40 -15 40 -24 0 -58 -36 -59 -62 0 -11
-8 -18 -20 -18 -17 0 -20 -7 -20 -40 0 -22 -5 -40 -11 -40 -5 0 -7 -4 -4 -10
9 -15 19 -12 42 9 18 17 23 18 39 6 24 -18 54 -19 54 -1 0 8 15 17 37 21 21 4
47 18 60 31 12 13 31 24 41 24 13 0 21 9 25 28 3 15 5 28 4 28 -33 27 -193
134 -201 134 -6 0 -19 -11 -28 -25z m142 -120 c-7 -45 -7 -46 -9 -13 -1 32 8
74 14 66 1 -2 -1 -25 -5 -53z"/>
<path d="M8345 9190 c-3 -5 1 -10 10 -10 9 0 13 5 10 10 -3 6 -8 10 -10 10 -2
0 -7 -4 -10 -10z"/>
<path d="M6120 8977 c-17 -25 -24 -49 -51 -167 -19 -84 -18 -114 4 -177 13
-39 41 -44 58 -11 12 23 20 351 9 369 -3 4 -12 -2 -20 -14z"/>
<path d="M8240 8900 c0 -22 5 -40 10 -40 6 0 10 18 10 40 0 22 -4 40 -10 40
-5 0 -10 -18 -10 -40z"/>
<path d="M7025 8917 c-4 -10 -5 -21 -1 -24 10 -10 18 4 13 24 -4 17 -4 17 -12
0z"/>
<path d="M6493 8913 c-7 -2 -13 -13 -13 -24 0 -11 -11 -41 -24 -67 -23 -45
-52 -127 -94 -262 -48 -155 -46 -147 -28 -175 9 -14 20 -25 24 -25 22 1 47 37
72 108 15 44 33 88 38 98 17 34 63 191 69 235 3 24 9 49 13 54 3 6 7 22 8 38
2 23 -2 27 -26 26 -15 0 -33 -3 -39 -6z"/>
<path d="M8125 8890 c-28 -29 -28 -30 -7 -30 12 0 22 5 22 10 0 6 5 10 10 10
6 0 10 -8 10 -18 0 -18 29 -52 43 -52 15 0 6 68 -10 82 -33 28 -40 27 -68 -2z"/>
<path d="M8812 8908 c-7 -7 -12 -20 -12 -31 0 -17 -1 -17 -17 -2 -15 16 -18
16 -28 1 -7 -9 -17 -16 -24 -16 -6 0 -11 -5 -11 -11 0 -6 -7 -17 -15 -25 -17
-18 -20 -44 -5 -44 7 0 7 -7 0 -20 -6 -11 -8 -25 -4 -32 4 -6 7 -24 8 -41 1
-16 8 -33 16 -37 68 -34 70 -34 85 -14 9 10 24 36 35 57 11 20 24 37 29 37 5
0 12 11 15 25 4 14 13 25 21 25 8 0 15 6 15 14 0 24 -18 28 -30 6 -6 -11 -15
-20 -21 -20 -6 0 -6 7 1 19 17 33 11 66 -18 94 -22 21 -31 24 -40 15z"/>
<path d="M8560 8870 c0 -5 18 -10 40 -10 22 0 40 5 40 10 0 6 -18 10 -40 10
-22 0 -40 -4 -40 -10z"/>
<path d="M8000 8840 c0 -11 -7 -20 -15 -20 -21 0 -21 -83 1 -104 9 -10 11 -16
4 -16 -16 0 -49 -41 -50 -62 0 -9 14 -30 31 -47 25 -25 34 -29 50 -21 10 6 23
19 29 30 14 26 30 26 30 0 0 -17 7 -20 40 -20 29 0 40 4 40 15 0 10 10 15 33
15 55 0 73 10 86 45 9 26 9 39 -1 61 -19 43 -28 45 -58 12 -22 -23 -32 -28
-53 -22 -21 5 -27 3 -27 -11 0 -24 -32 -75 -47 -75 -15 0 -17 24 -4 48 12 22
-8 112 -24 112 -7 0 -18 18 -25 40 -14 42 -40 55 -40 20z m80 -120 c0 -11 -4
-20 -10 -20 -5 0 -10 -18 -10 -40 0 -22 -4 -40 -10 -40 -14 0 -12 94 2 108 18
18 28 15 28 -8z m160 -90 c0 -5 -8 -10 -17 -10 -15 0 -16 2 -3 10 19 12 20 12
20 0z"/>
<path d="M5260 8830 c0 -5 7 -10 16 -10 8 0 12 5 9 10 -3 6 -10 10 -16 10 -5
0 -9 -4 -9 -10z"/>
<path d="M8080 8800 c0 -11 6 -20 14 -20 8 0 16 -5 18 -11 6 -18 48 12 48 33
0 14 -8 18 -40 18 -33 0 -40 -3 -40 -20z"/>
<path d="M8572 8798 c-7 -7 -12 -19 -11 -27 0 -11 2 -12 6 -3 2 6 11 12 19 12
8 0 14 4 14 9 0 16 -16 21 -28 9z"/>
<path d="M8185 8770 c4 -6 11 -8 16 -5 14 9 11 15 -7 15 -8 0 -12 -5 -9 -10z"/>
<path d="M8650 8611 c0 -19 22 -23 38 -7 15 15 14 16 -11 16 -15 0 -27 -4 -27
-9z"/>
<path d="M458 8528 c9 -9 15 -9 24 0 9 9 7 12 -12 12 -19 0 -21 -3 -12 -12z"/>
<path d="M7393 8420 c0 -25 2 -35 4 -22 2 12 2 32 0 45 -2 12 -4 2 -4 -23z"/>
<path d="M8000 8245 c0 -8 5 -15 10 -15 6 0 10 7 10 15 0 8 -4 15 -10 15 -5 0
-10 -7 -10 -15z"/>
<path d="M8063 8183 c-18 -7 -16 -43 2 -43 9 0 15 9 15 25 0 14 -1 25 -2 24
-2 0 -9 -3 -15 -6z"/>
<path d="M9417 7952 c-20 -22 -22 -51 -4 -54 6 0 17 -2 22 -2 6 -1 16 -5 24
-10 13 -9 12 4 -10 62 -10 27 -12 27 -32 4z"/>
<path d="M1112 7910 c0 -14 2 -19 5 -12 2 6 2 18 0 25 -3 6 -5 1 -5 -13z"/>
<path d="M6080 7727 c0 -11 -6 -33 -14 -50 -29 -66 -54 -211 -38 -221 10 -6
22 16 22 41 0 8 6 29 14 46 14 32 66 183 66 192 0 3 -4 5 -10 5 -5 0 -10 -10
-10 -22 -1 -23 -1 -23 -15 2 -12 20 -14 22 -15 7z"/>
<path d="M6823 7503 c-18 -7 -16 -23 2 -23 8 0 15 7 15 15 0 8 -1 15 -2 14 -2
0 -9 -3 -15 -6z"/>
<path d="M2888 7133 c7 -3 16 -2 19 1 4 3 -2 6 -13 5 -11 0 -14 -3 -6 -6z"/>
<path d="M442 6899 c2 -19 11 -25 48 -31 31 -5 46 -4 52 5 13 21 2 32 -31 29
-18 -1 -41 3 -52 9 -18 9 -20 8 -17 -12z"/>
<path d="M585 6891 c-8 -15 3 -31 21 -31 9 0 14 7 12 17 -4 20 -24 28 -33 14z"/>
<path d="M2750 6693 c0 -5 11 -9 25 -9 14 -1 25 2 25 7 0 5 -11 9 -25 9 -14 0
-25 -3 -25 -7z"/>
<path d="M3825 6569 c-4 -10 -11 -19 -16 -19 -6 0 -7 -4 -4 -10 3 -5 1 -10 -6
-10 -9 0 -10 -3 -3 -10 11 -11 84 5 84 19 0 4 -11 17 -24 29 -24 21 -25 21
-31 1z"/>
<path d="M3248 6248 c9 -9 15 -9 24 0 9 9 7 12 -12 12 -19 0 -21 -3 -12 -12z"/>
<path d="M4135 6110 c3 -5 8 -10 11 -10 2 0 4 5 4 10 0 6 -5 10 -11 10 -5 0
-7 -4 -4 -10z"/>
<path d="M4160 6086 c0 -9 5 -16 10 -16 6 0 10 4 10 9 0 6 -4 13 -10 16 -5 3
-10 -1 -10 -9z"/>
<path d="M4339 6026 c6 -7 23 -36 36 -62 14 -28 25 -41 25 -30 0 22 -51 106
-64 106 -5 0 -3 -6 3 -14z"/>
<path d="M4815 5980 c3 -5 10 -10 16 -10 5 0 9 5 9 10 0 6 -7 10 -16 10 -8 0
-12 -4 -9 -10z"/>
<path d="M4170 5970 c-12 -8 -11 -10 8 -10 12 0 22 5 22 10 0 13 -11 13 -30 0z"/>
<path d="M7203 5940 c0 -25 2 -35 4 -22 2 12 2 32 0 45 -2 12 -4 2 -4 -23z"/>
<path d="M4460 5952 c0 -12 19 -26 26 -19 2 2 -2 10 -11 17 -9 8 -15 8 -15 2z"/>
<path d="M4851 5944 c0 -11 3 -14 6 -6 3 7 2 16 -1 19 -3 4 -6 -2 -5 -13z"/>
<path d="M4900 5856 c0 -9 5 -16 10 -16 6 0 10 4 10 9 0 6 -4 13 -10 16 -5 3
-10 -1 -10 -9z"/>
<path d="M4915 5760 c3 -5 8 -10 11 -10 2 0 4 5 4 10 0 6 -5 10 -11 10 -5 0
-7 -4 -4 -10z"/>
<path d="M98 5385 c-3 -3 -26 -6 -52 -7 -25 0 -46 -4 -46 -9 0 -5 5 -9 10 -9
6 0 20 -8 31 -19 13 -11 42 -21 77 -25 104 -11 142 -18 148 -27 7 -12 71 -11
95 1 10 6 19 19 19 30 0 15 -12 21 -57 29 -32 6 -81 18 -109 26 -51 15 -106
20 -116 10z"/>
<path d="M530 5316 c-9 -12 -7 -17 9 -25 25 -14 58 -14 67 0 15 25 -56 48 -76
25z"/>
<path d="M270 5251 c0 -5 7 -14 15 -21 13 -10 15 -9 15 9 0 12 -6 21 -15 21
-8 0 -15 -4 -15 -9z"/>
<path d="M920 5250 c-8 -5 -39 -7 -67 -3 -55 6 -75 -9 -30 -23 49 -15 107 -47
107 -59 0 -7 7 -15 15 -19 8 -3 15 -2 15 2 0 4 20 15 45 25 25 11 45 22 45 27
0 4 -9 19 -21 34 -15 20 -29 26 -57 26 -20 0 -44 -5 -52 -10z"/>
<path d="M1620 5116 c-11 -11 128 -106 156 -106 28 0 104 40 104 55 0 8 -12
22 -27 33 -22 15 -50 20 -126 24 -54 2 -101 0 -107 -6z"/>
<path d="M24 5102 c-15 -10 -25 -40 -15 -46 5 -3 11 -20 15 -37 5 -27 9 -30
28 -24 46 14 123 22 132 14 6 -5 28 -9 50 -9 47 0 101 -29 111 -59 3 -12 11
-21 16 -21 10 0 69 54 69 63 0 10 -100 107 -110 107 -11 0 -40 -29 -40 -41 0
-5 -9 -9 -20 -9 -11 0 -20 -5 -20 -12 0 -9 -3 -9 -12 0 -7 7 -21 12 -32 12
-30 0 -108 31 -132 52 -23 20 -25 21 -40 10z"/>
<path d="M2010 5082 c0 -14 35 -42 53 -42 20 0 22 21 5 38 -14 14 -58 16 -58
4z"/>
<path d="M543 5001 c-28 -23 -29 -38 -5 -45 9 -2 27 -7 38 -11 17 -4 23 0 28
19 13 53 -19 72 -61 37z"/>
<path d="M897 4966 c-15 -7 -34 -22 -42 -33 -13 -19 -13 -27 3 -76 l17 -56 40
15 c22 8 52 12 68 9 15 -2 27 0 27 5 0 5 7 15 15 24 20 20 10 42 -26 55 -16 5
-37 24 -47 40 -19 35 -17 34 -55 17z"/>
<path d="M0 3530 c0 -53 15 -67 26 -25 7 30 -2 75 -16 75 -6 0 -10 -22 -10
-50z"/>
<path d="M1722 3548 c-15 -15 -15 -33 -1 -60 11 -21 12 -21 26 -2 8 10 17 18
21 17 4 -2 7 9 7 25 0 30 -31 42 -53 20z"/>
<path d="M1230 3443 c0 -13 5 -23 10 -23 13 0 13 11 0 30 -8 12 -10 11 -10 -7z"/>
<path d="M2275 3290 c3 -5 10 -10 16 -10 5 0 9 5 9 10 0 6 -7 10 -16 10 -8 0
-12 -4 -9 -10z"/>
<path d="M2307 3230 c-4 -14 -7 -51 -7 -82 0 -43 4 -58 14 -58 17 0 74 63 87
97 12 32 12 33 -5 27 -8 -3 -17 -1 -21 5 -3 6 -17 11 -30 11 -13 0 -25 6 -27
12 -3 7 -7 1 -11 -12z"/>
<path d="M3345 3110 c-3 -5 -1 -10 4 -10 6 0 11 5 11 10 0 6 -2 10 -4 10 -3 0
-8 -4 -11 -10z"/>
<path d="M1188 3103 c6 -2 18 -2 25 0 6 3 1 5 -13 5 -14 0 -19 -2 -12 -5z"/>
<path d="M3380 3090 c0 -5 9 -10 20 -10 11 0 20 5 20 10 0 6 -9 10 -20 10 -11
0 -20 -4 -20 -10z"/>
<path d="M1458 3073 c12 -2 32 -2 45 0 12 2 2 4 -23 4 -25 0 -35 -2 -22 -4z"/>
<path d="M1676 3063 c-12 -13 7 -23 45 -23 23 0 39 -5 39 -12 0 -8 -61 -10
-242 -5 -158 5 -239 4 -232 -3 15 -15 74 -24 74 -11 0 6 17 11 40 11 27 0 40
-4 40 -14 0 -9 33 -17 123 -27 113 -12 118 -14 72 -20 -27 -4 -115 -3 -195 1
-80 5 -193 9 -251 9 -59 0 -158 5 -221 11 -113 13 -113 13 -149 -12 -19 -13
-34 -28 -32 -34 4 -12 -70 -74 -89 -74 -19 0 -168 -54 -168 -61 0 -4 -18 -26
-40 -50 -22 -24 -43 -55 -47 -69 -3 -14 -11 -32 -17 -40 -38 -47 -55 -122 -45
-188 4 -28 16 -26 180 30 121 41 184 72 175 87 -11 17 47 43 101 46 30 1 59 7
64 12 6 6 23 48 39 94 19 55 38 91 54 103 26 20 11 21 217 -14 30 -6 83 -10
118 -10 42 0 74 -6 101 -20 38 -20 39 -20 116 0 77 20 87 25 134 68 14 12 44
28 68 34 32 8 40 13 32 23 -8 9 -3 14 21 19 17 3 35 4 39 1 5 -3 6 3 3 13 -4
17 3 19 69 21 40 1 82 4 93 6 11 3 60 7 109 10 68 3 91 8 101 21 20 28 6 53
-34 64 -39 10 -495 13 -505 3z m191 -49 c-3 -3 -12 -4 -19 -1 -8 3 -5 6 6 6
11 1 17 -2 13 -5z m-52 -74 c-3 -5 -15 -10 -25 -10 -10 0 -22 5 -25 10 -4 6 7
10 25 10 18 0 29 -4 25 -10z m-78 -6 c-3 -3 -12 -4 -19 -1 -8 3 -5 6 6 6 11 1
17 -2 13 -5z"/>
<path d="M898 3043 c12 -2 32 -2 45 0 12 2 2 4 -23 4 -25 0 -35 -2 -22 -4z"/>
<path d="M2137 2940 c-14 -11 -32 -20 -41 -20 -9 0 -16 -3 -16 -7 0 -5 -21 -9
-48 -10 -99 -5 -112 -18 -83 -85 45 -102 207 -232 427 -341 141 -71 216 -98
341 -122 101 -20 120 -16 62 14 -63 33 -250 165 -316 222 -83 73 -218 235
-256 306 -17 35 -35 63 -38 63 -4 0 -18 -9 -32 -20z"/>
<path d="M118 2818 c-7 -13 -16 -85 -20 -168 -4 -80 -10 -186 -13 -236 -6
-110 -1 -115 80 -79 l55 24 0 73 c1 94 10 249 16 267 3 8 -1 38 -7 67 -10 45
-16 55 -42 64 -43 15 -55 13 -69 -12z"/>
<path d="M4110 2657 c0 -7 5 -18 12 -25 9 -9 9 -12 0 -12 -20 0 -13 -16 12
-28 44 -20 61 -60 54 -125 -1 -9 -17 -27 -35 -38 -19 -12 -32 -24 -29 -27 9
-8 85 48 90 67 21 68 10 103 -38 132 -19 11 -37 31 -40 44 -7 26 -26 35 -26
12z"/>
<path d="M4113 2554 c-3 -8 -1 -25 5 -37 9 -19 10 -18 10 16 -1 40 -5 46 -15
21z"/>
<path d="M4120 2439 c0 -5 5 -7 10 -4 6 3 10 8 10 11 0 2 -4 4 -10 4 -5 0 -10
-5 -10 -11z"/>
<path d="M5299 180 c-7 -30 -7 -180 0 -180 23 0 32 133 11 168 -5 10 -10 15
-11 12z"/>
</g>
</svg>
